<svg width="150" height="100" viewBox="0 0 150 100" fill="none" xmlns="http://www.w3.org/2000/svg">
<g opacity="0.5">
<path opacity="0.5" d="M72.0958 0H0.999817V22.3341H72.0958V0Z" fill="url(#paint0_linear)"/>
</g>
<path d="M71.1664 0.286972H1.92911V21.666H71.1664V0.286972Z" fill="white"/>
<path d="M69.177 1.62315H3.91858V20.3298H69.177V1.62315Z" fill="#6C63FF"/>
<path d="M58.0386 7.76743L59.9935 7.77517C59.9935 7.77517 56.3589 11.3156 56.0622 11.6042C55.9392 11.7011 55.8327 11.8082 55.7451 11.9233C55.5845 12.2504 55.4573 12.5856 55.3646 12.9261L53.5759 12.9325C53.5759 12.9325 53.8543 12.2145 53.8428 11.8321C53.8328 11.498 53.5955 11.1643 53.4624 10.8293C53.3279 10.4901 53.1453 9.82639 53.1453 9.82639H54.9842L55.2379 10.5558L58.0386 7.76743" fill="white"/>
<path d="M54.3368 8.51411C54.6976 8.67045 54.919 9.53293 54.919 9.53293C54.919 9.53293 53.0313 9.55294 52.004 9.55294H51.1163L50.0383 12.9261H48.3897C48.3897 12.9261 49.4157 9.26033 49.6579 8.59572C49.7364 8.38053 50.1956 8.41747 50.9711 8.41747H52.2095C53.0091 8.41747 53.9438 8.34405 54.3368 8.51411V8.51411ZM46.6618 10.1569C46.6815 9.9913 46.6198 9.82596 46.4875 9.68966C46.2946 9.47591 46.1166 9.42618 45.6092 9.41477C44.1769 9.38242 44.2047 10.1455 44.2047 10.1455L46.6618 10.1569ZM48.2153 9.28303C48.4252 9.82738 48.0251 11.1064 48.0251 11.1064C48.0251 11.1064 45.9357 11.0813 44.7912 11.1064C44.4354 11.1142 44.0095 11.0786 43.9035 11.1976C43.7545 11.3644 43.958 11.6211 44.1305 11.7295C44.329 11.8544 44.7157 11.8686 44.8547 11.8813C45.7836 11.9661 47.7277 11.9032 47.7277 11.9032L47.3909 12.9752C47.3909 12.9752 44.6436 13.0743 43.2694 12.8385C43.005 12.7977 42.7627 12.7028 42.5719 12.5651C42.525 12.5286 42.4843 12.479 42.4399 12.4361C42.366 12.3628 42.3039 12.2837 42.2548 12.2003C41.941 11.5991 42.2916 10.4473 42.6353 9.83007C42.6752 9.75856 42.7253 9.66782 42.778 9.59073C42.8439 9.49462 42.8997 9.3861 42.9524 9.32863C42.9878 9.289 43.0317 9.26348 43.0684 9.22609C43.1112 9.18263 43.1571 9.1408 43.206 9.10078C43.3393 8.99798 43.4882 8.90625 43.6499 8.82732C44.2224 8.5191 45.2585 8.27983 46.5033 8.37141C46.9719 8.40605 47.6797 8.52638 48.0251 8.87285C48.1152 9.00244 48.1792 9.14057 48.2153 9.2831V9.28303ZM40.6538 8.41327L42.2524 8.40651C42.2524 8.40651 41.3614 11.4446 40.9074 12.9261H39.0684C37.7832 12.9261 36.6387 13.0405 36.1517 12.3791C35.6793 11.7368 36.1302 10.6807 36.3419 9.96312C36.4916 9.45532 36.8068 8.41741 36.8068 8.41741L38.4631 8.40652C38.4631 8.40652 37.9951 10.0224 37.8003 10.8293C37.7306 11.1183 37.5868 11.3904 37.737 11.6041C37.8796 11.8075 38.0794 11.822 38.688 11.8321C38.8809 11.8354 39.5124 11.8321 39.5124 11.8321L40.6538 8.41327V8.41327ZM33.1715 10.6013C33.3389 10.1738 33.583 9.7102 33.552 9.32496C33.5263 9.14256 33.4374 8.9677 33.2934 8.8164C33.1494 8.6651 32.9549 8.54219 32.7277 8.45893C32.3566 8.37029 31.9585 8.35744 31.5779 8.42183C31.1972 8.48621 30.8489 8.62529 30.5717 8.82358C30.1222 9.17366 29.9699 9.58259 29.8108 10.1456C29.6923 10.5635 29.5952 11.0047 29.8108 11.3306C30.1924 11.9069 31.3827 11.781 32.6642 11.7865C32.8544 11.4201 33.0117 11.0084 33.1715 10.6013V10.6013ZM35.3908 8.91478C35.5734 9.86924 34.8728 10.9228 34.3902 11.8389C34.8823 11.8709 35.3135 11.834 35.3446 11.8604C35.3769 11.8945 35.0147 12.9539 34.8885 12.9567C34.498 12.9639 33.2039 12.9717 32.6642 12.9717C30.9033 12.9717 29.256 13.0542 28.4159 12.4247C28.0771 12.1401 27.8572 11.7925 27.7817 11.4218C27.712 10.9012 27.7765 10.3758 27.972 9.87206C28.1076 9.45813 28.3209 9.05939 28.6061 8.68679C29.346 7.75831 30.6332 7.0691 32.791 7.2282C33.2793 7.27225 33.7521 7.3804 34.1861 7.54725C34.212 7.55821 34.3028 7.61017 34.3236 7.61929C34.8309 7.85134 35.2932 8.40514 35.3908 8.91478H35.3908ZM27.5997 8.41879C27.4932 8.76749 27.3867 9.16278 27.2744 9.50735H25.499C25.6365 9.12538 25.7418 8.74564 25.8795 8.41334C26.4476 8.41334 26.9758 8.41879 27.5998 8.41879L27.5997 8.41879ZM25.4356 9.82647H27.1477C26.9238 10.7172 26.4805 12.1539 26.1331 13.154C25.9156 13.7799 25.7704 14.2366 25.1819 14.5671C25.1293 14.5967 25.0989 14.5826 25.0551 14.6127C24.9467 14.687 24.4451 14.7732 24.1674 14.795C23.6622 14.8154 23.1557 14.8142 22.6506 14.7914C22.7958 14.4099 22.9601 13.9518 23.0895 13.6098C24.4421 13.7275 24.4763 12.8085 24.7381 11.9233C24.8896 11.4118 25.3488 10.0316 25.4356 9.82647" fill="white"/>
<path d="M21.4408 12.1512L21.4041 12.2196C20.7789 13.0948 19.6711 13.6317 18.0909 13.6554C17.4371 13.6618 16.7888 13.5686 16.1886 13.3819C15.2125 13.0587 14.4106 12.5142 13.906 11.8321C13.2522 10.9218 13.1343 9.65549 14.4937 8.70969C14.5147 8.70969 14.3288 8.91477 14.3498 8.91477L14.3124 9.0023C13.3328 11.2071 16.351 13.0966 19.2849 12.8805C20.0927 12.8072 20.8474 12.5519 21.4408 12.1512" fill="#21609B"/>
<path d="M19.6653 11.2395C20.4034 11.2355 21.1096 11.0226 21.631 10.647C21.2316 11.3759 20.075 11.8444 18.524 11.6954C17.2253 11.5705 15.9883 10.631 15.8608 9.68968C15.7677 9.00461 16.0998 8.59574 16.6471 8.09975C16.5037 8.28113 16.4091 8.48027 16.3681 8.6868C16.1602 10.1688 18.0149 11.2317 19.6653 11.2395" fill="#21609B"/>
<path d="M21.5568 9.39883C21.4421 9.58804 20.7815 9.94534 20.4897 9.99002C19.3344 10.167 18.5945 9.77312 18.2069 9.32495C18.1351 9.22984 18.0738 9.13079 18.0237 9.02873C17.8734 8.66133 17.9425 8.10563 18.3909 7.81801C18.2639 8.07371 18.235 8.34924 18.3072 8.61573C18.3751 8.7858 18.4782 8.94759 18.6128 9.09572C18.7856 9.28583 19.0266 9.43891 19.3103 9.53883C19.4209 9.58781 19.5384 9.62828 19.6609 9.65955C19.9519 9.72116 20.5664 9.8834 21.5569 9.39883" fill="#21609B"/>
<path d="M149 35.0279H94.8651V64.424H149V35.0279Z" fill="url(#paint1_linear)"/>
<path d="M147.839 35.863H96.0268V63.5889H147.839V35.863Z" fill="white"/>
<path d="M145.98 37.1992H97.8855V62.2527H145.98V37.1992Z" fill="#6C63FF"/>
<path d="M107.432 49.6697C107.425 51.2547 109.572 52.7391 112.962 53.5808C112.273 56.0322 112.821 58.0105 114.676 58.7851C116.582 59.5813 119.43 59.0396 122.138 57.3486C124.764 58.9832 127.421 59.6301 129.281 58.8618C131.193 58.072 131.782 55.9622 131.097 53.4312C134.636 52.599 136.619 51.3419 136.626 49.7361C136.633 48.1879 134.482 46.8437 131.137 46.0074C131.898 43.3751 131.272 41.4446 129.34 40.638C127.478 39.8604 124.783 40.5284 122.105 42.1935C119.334 40.4134 116.671 39.8658 114.735 40.6658C112.867 41.4372 112.327 43.449 112.996 45.9488C109.712 46.7633 107.439 48.1279 107.432 49.6697Z" fill="white"/>
<path d="M130.424 46.8287C130.149 46.76 129.871 46.6963 129.591 46.6377C129.638 46.502 129.681 46.3657 129.721 46.2288C130.363 44.0256 129.958 42.2486 128.549 41.6607C127.199 41.0969 124.985 41.6765 122.745 43.069C122.524 43.2065 122.308 43.348 122.097 43.4934C121.957 43.3961 121.814 43.3007 121.669 43.2072C119.334 41.7074 116.99 41.0724 115.578 41.6556C114.225 42.2148 113.817 43.8836 114.377 45.9743C114.433 46.1813 114.496 46.3872 114.566 46.592C114.233 46.6591 113.912 46.7306 113.605 46.8068C110.857 47.4885 109.1 48.5628 109.095 49.6811C109.09 50.8362 110.966 51.9991 113.822 52.708C114.054 52.7652 114.287 52.8183 114.523 52.8671C114.445 53.0874 114.376 53.309 114.316 53.5321C113.765 55.5839 114.181 57.215 115.526 57.7769C116.916 58.3571 119.254 57.7693 121.536 56.345C121.716 56.2324 121.897 56.1133 122.078 55.9878C122.305 56.1462 122.538 56.2999 122.777 56.449C124.975 57.8171 127.148 58.3725 128.497 57.8152C129.891 57.2397 130.35 55.4894 129.773 53.3574C129.729 53.1946 129.678 53.0284 129.619 52.8589C129.784 52.8244 129.944 52.7887 130.102 52.7517C133.077 52.0506 135.016 50.9105 135.021 49.74C135.026 48.6176 133.221 47.528 130.424 46.8287H130.424Z" fill="#53C1DE"/>
<path d="M129.757 51.9952C129.615 52.0287 129.469 52.0609 129.321 52.0922C128.962 51.2838 128.527 50.4939 128.019 49.728C128.514 48.9747 128.939 48.1983 129.291 47.4042C129.556 47.46 129.813 47.5188 130.061 47.5808C132.457 48.1799 133.917 49.0611 133.914 49.7375C133.911 50.458 132.326 51.3898 129.757 51.9952H129.757ZM128.685 53.5096C128.941 54.4524 128.974 55.3043 128.799 55.9698C128.642 56.5678 128.33 56.966 127.945 57.1249C127.127 57.463 125.381 57.0171 123.502 55.8472C123.287 55.713 123.07 55.5701 122.852 55.4184C123.64 54.7949 124.369 54.1338 125.034 53.4396C126.216 53.3706 127.39 53.2433 128.547 53.0585C128.599 53.212 128.645 53.3624 128.685 53.5096V53.5096ZM117.901 57.0433C117.102 57.2442 116.466 57.2485 116.083 57.0884C115.266 56.7475 114.932 55.4377 115.404 53.6831C115.46 53.4757 115.524 53.2696 115.596 53.0647C116.747 53.2452 117.914 53.3693 119.088 53.4362C119.766 54.131 120.506 54.793 121.305 55.4179C121.143 55.5295 120.978 55.6381 120.809 55.7438C119.801 56.3737 118.791 56.8198 117.901 57.0433H117.901ZM114.184 51.9554C112.921 51.6419 111.879 51.2359 111.165 50.7938C110.524 50.3964 110.201 50.0026 110.202 49.6836C110.205 49.005 111.616 48.1425 113.967 47.5595C114.262 47.4866 114.559 47.42 114.86 47.3597C115.205 48.1643 115.624 48.9516 116.113 49.7164C115.611 50.49 115.18 51.2865 114.823 52.1009C114.608 52.0562 114.395 52.0077 114.184 51.9554ZM115.464 45.8238C114.985 44.0326 115.315 42.6829 116.13 42.3459C116.999 41.987 118.915 42.506 120.931 43.8009C121.06 43.8837 121.189 43.9704 121.319 44.06C120.52 44.6773 119.78 45.332 119.102 46.0198C117.938 46.0921 116.781 46.2186 115.64 46.3984C115.575 46.208 115.516 46.0164 115.464 45.8238V45.8238ZM126.639 47.8344C126.387 47.5191 126.126 47.2078 125.855 46.9005C126.682 46.9775 127.474 47.0791 128.218 47.2029C127.976 47.7471 127.697 48.2821 127.381 48.806C127.143 48.4786 126.895 48.1548 126.639 47.8344ZM122.093 44.6307C122.63 45.0546 123.137 45.4976 123.613 45.9582C122.592 45.9213 121.57 45.9188 120.548 45.9508C121.054 45.4744 121.572 45.032 122.093 44.6307ZM117.489 47.8191C117.233 48.1356 116.988 48.4564 116.753 48.7813C116.433 48.2306 116.159 47.6893 115.936 47.1666C116.676 47.0493 117.465 46.9538 118.288 46.8819C118.011 47.1897 117.745 47.5021 117.489 47.8191ZM118.286 52.5789C117.484 52.5145 116.687 52.4205 115.898 52.2973C116.129 51.7665 116.414 51.2148 116.746 50.6538C116.979 50.9799 117.222 51.302 117.476 51.6199C117.736 51.9442 118.006 52.2638 118.286 52.5789V52.5789ZM122.078 54.8467C121.555 54.4383 121.034 53.9868 120.524 53.5012C121.021 53.5163 121.526 53.5245 122.041 53.5257C122.57 53.5269 123.091 53.5198 123.606 53.5043C123.129 53.9703 122.619 54.4183 122.078 54.8467V54.8467ZM127.383 50.6494C127.71 51.1854 127.999 51.7334 128.247 52.2909C127.448 52.4181 126.64 52.5152 125.827 52.5818C126.102 52.2701 126.369 51.9546 126.627 51.6352C126.889 51.3107 127.141 50.982 127.383 50.6494V50.6494ZM125.669 51.2353C125.274 51.7248 124.858 52.2048 124.419 52.6751C123.65 52.7129 122.855 52.7314 122.045 52.7296C121.238 52.7278 120.453 52.7079 119.698 52.671C119.252 52.2 118.832 51.7174 118.437 51.2232C118.044 50.732 117.677 50.2306 117.337 49.719C117.681 49.2091 118.051 48.7091 118.447 48.2189V48.2191C118.842 47.7291 119.264 47.2505 119.71 46.7832C120.481 46.7431 121.272 46.7229 122.071 46.7248C122.874 46.7266 123.665 46.7505 124.436 46.7945C124.874 47.2627 125.288 47.7416 125.679 48.2311C126.072 48.7217 126.442 49.221 126.79 49.7291C126.442 50.2406 126.068 50.7426 125.669 51.2353H125.669ZM127.993 42.3492C128.86 42.7111 129.191 44.1634 128.637 46.0657C128.601 46.1896 128.562 46.313 128.519 46.4359C127.378 46.2472 126.22 46.1131 125.054 46.0344C124.389 45.3427 123.66 44.6842 122.871 44.0631C123.066 43.929 123.265 43.7984 123.469 43.6713C125.389 42.4782 127.18 42.0094 127.993 42.3492V42.3492Z" fill="white"/>
<path d="M122.065 48.0463C122.523 48.0473 122.97 48.1459 123.35 48.3297C123.73 48.5134 124.026 48.774 124.2 49.0785C124.374 49.383 124.418 49.7178 124.327 50.0404C124.237 50.3631 124.015 50.6592 123.69 50.8912C123.365 51.1232 122.952 51.2808 122.502 51.344C122.053 51.4072 121.588 51.3732 121.165 51.2462C120.743 51.1193 120.382 50.9051 120.129 50.6309C119.876 50.3566 119.741 50.0345 119.743 49.7053C119.744 49.4867 119.805 49.2705 119.922 49.0688C120.039 48.8671 120.21 48.6841 120.426 48.53C120.642 48.3759 120.897 48.2539 121.179 48.1709C121.46 48.0879 121.761 48.0456 122.065 48.0463" fill="#53C1DE"/>
<path d="M145.33 80.7928C145.33 86.9899 140.205 89.1539 133.883 89.1539C133.736 89.1539 133.59 89.1528 133.444 89.1499C133.152 89.1454 132.861 89.1362 132.575 89.1213C126.869 88.8314 122.436 86.5558 122.436 80.7928C122.436 74.829 133.036 67.3034 133.836 66.7447L133.837 66.7441C133.868 66.7223 133.883 66.7115 133.883 66.7115C133.883 66.7115 145.33 74.5951 145.33 80.7928Z" fill="#3F3D56"/>
<path d="M133.466 88.2057L137.653 84.0006L133.455 88.6673L133.444 89.1499C133.152 89.1454 132.861 89.1362 132.575 89.1213L133.026 82.9214L133.023 82.8734L133.031 82.8642L133.073 82.2786L128.865 77.5999L133.085 81.8394L133.096 81.9635L133.437 77.279L129.835 72.4448L133.481 76.4561L133.836 66.7447L133.837 66.7115V66.7441L133.778 74.4024L137.364 71.3662L133.763 75.0618L133.669 79.2561L137.017 75.2311L133.654 79.8737L133.602 82.2054L138.463 76.6025L133.584 83.0192L133.466 88.2057Z" fill="#F2F2F2"/>
<path d="M26.4082 87.4547C26.4082 91.168 23.3374 92.4646 19.5496 92.4646C19.4614 92.4646 19.3737 92.464 19.2865 92.4622C19.111 92.4595 18.9371 92.454 18.7655 92.4451C15.3466 92.2714 12.6905 90.9079 12.6905 87.4547C12.6905 83.8812 19.0419 79.3719 19.521 79.0371L19.5219 79.0367C19.5401 79.0237 19.5496 79.0172 19.5496 79.0172C19.5496 79.0172 26.4082 83.741 26.4082 87.4547Z" fill="#3F3D56"/>
<path d="M19.2993 91.8965L21.8081 89.3767L19.2931 92.173L19.2865 92.4622C19.111 92.4595 18.937 92.454 18.7654 92.4451L19.0357 88.7301L19.0338 88.7013L19.0386 88.6958L19.0638 88.3449L16.5426 85.5415L19.0715 88.0818L19.0777 88.1561L19.2822 85.3492L17.1237 82.4526L19.3084 84.8561L19.521 79.0371L19.5219 79.0172V79.0367L19.4866 83.6256L21.6351 81.8063L19.4776 84.0207L19.4209 86.5339L21.4273 84.1221L19.4123 86.904L19.3808 88.3011L22.2934 84.9438L19.3699 88.7887L19.2993 91.8965Z" fill="#F2F2F2"/>
<g opacity="0.7">
<g opacity="0.1">
<path opacity="0.1" d="M114.785 77.4031V79.9438V80.7908V92.0826V92.9296V95.329H110.073H108.502V92.9296V92.0826V80.7908V79.9438V77.4031H110.073H114.785Z" fill="url(#paint2_linear)"/>
</g>
<g opacity="0.1">
<path opacity="0.1" d="M108.11 77.4031V79.9438V80.7908V92.0826V92.9296V95.329H103.397H101.826V92.9296V92.0826V80.7908V79.9438V77.4031H103.397H108.11Z" fill="url(#paint3_linear)"/>
</g>
</g>
<path d="M24.5249 90.4817H13.4649C11.9603 90.4817 10.7405 91.3586 10.7405 92.4402V93.5733C10.7405 94.655 11.9603 95.5318 13.4649 95.5318H24.5249C26.0296 95.5318 27.2494 94.655 27.2494 93.5733V92.4402C27.2494 91.3586 26.0296 90.4817 24.5249 90.4817Z" fill="#6C63FF"/>
<g opacity="0.7">
<g opacity="0.1">
<path opacity="0.1" d="M41.6998 77.5401V80.0808V80.9278V92.2196V93.0666V95.466H46.4123H47.983V93.0666V92.2196V80.9278V80.0808V77.5401H46.4123H41.6998Z" fill="url(#paint4_linear)"/>
</g>
<g opacity="0.1">
<path opacity="0.1" d="M48.3757 77.5401V80.0808V80.9278V92.2196V93.0666V95.466H53.088H54.6588V93.0666V92.2196V80.9278V80.0808V77.5401H53.088H48.3757Z" fill="url(#paint5_linear)"/>
</g>
<g opacity="0.1">
<path opacity="0.1" d="M67.1903 94.299L61.9786 80.2518L61.675 79.4336L60.7642 76.9786L54.6932 78.1426L55.6041 80.5975L55.8459 81.2492L59.9556 92.3263L60.2592 93.1445L61.1194 95.463L67.1903 94.299Z" fill="url(#paint6_linear)"/>
</g>
</g>
<path d="M48.309 77.9783H42.343V94.9997H48.309V77.9783Z" fill="#535461"/>
<path d="M48.309 80.3908H42.343V81.1949H48.309V80.3908Z" fill="#6C63FF"/>
<path d="M48.309 91.9171H42.343V92.7212H48.309V91.9171Z" fill="#6C63FF"/>
<path opacity="0.1" d="M48.309 77.9783H46.8175V94.9997H48.309V77.9783Z" fill="black"/>
<path d="M54.6479 77.9783H48.6819V94.9997H54.6479V77.9783Z" fill="#535461"/>
<path d="M54.6479 80.3908H48.6819V81.1949H54.6479V80.3908Z" fill="#6C63FF"/>
<path d="M54.6479 91.9171H48.6819V92.7212H54.6479V91.9171Z" fill="#6C63FF"/>
<path opacity="0.1" d="M54.6479 77.9783H53.1564V94.9997H54.6479V77.9783Z" fill="black"/>
<path d="M60.4453 77.4451L54.6808 78.5503L60.7827 94.9968L66.5472 93.8915L60.4453 77.4451Z" fill="#535461"/>
<path d="M61.3102 79.7761L55.5456 80.8813L55.8339 81.6583L61.5984 80.5531L61.3102 79.7761Z" fill="#6C63FF"/>
<path d="M65.4422 90.913L59.6776 92.0183L59.9659 92.7953L65.7305 91.69L65.4422 90.913Z" fill="#6C63FF"/>
<path opacity="0.1" d="M60.4453 77.4451L59.0042 77.7214L65.1061 94.1678L66.5472 93.8915L60.4453 77.4451Z" fill="black"/>
<path d="M108.019 94.9997H113.985V77.9783H108.019V94.9997Z" fill="#535461"/>
<path d="M108.019 81.1949H113.985V80.3908H108.019V81.1949Z" fill="#6C63FF"/>
<path d="M108.019 92.7212H113.985V91.917H108.019V92.7212Z" fill="#6C63FF"/>
<path opacity="0.1" d="M108.019 94.9997H109.511V77.9783H108.019V94.9997Z" fill="black"/>
<path d="M101.68 94.9997H107.647V77.9783H101.68V94.9997Z" fill="#535461"/>
<path d="M101.68 81.1949H107.647V80.3908H101.68V81.1949Z" fill="#6C63FF"/>
<path d="M101.68 92.7212H107.647V91.917H101.68V92.7212Z" fill="#6C63FF"/>
<path opacity="0.1" d="M101.68 94.9997H103.172V77.9783H101.68V94.9997Z" fill="black"/>
<path d="M122.383 86.8716H144.013C144.013 86.8716 148.28 90.7854 141.659 96.6033H124.59C124.59 96.6033 118.41 92.5837 122.383 86.8716Z" fill="#6C63FF"/>
<g opacity="0.1">
<path opacity="0.1" d="M144.013 86.8716H122.383C122.333 86.9424 122.287 87.0128 122.241 87.0831H143.277C143.277 87.0831 147.44 90.9024 141.159 96.6033H141.659C148.28 90.7854 144.013 86.8716 144.013 86.8716Z" fill="black"/>
</g>
<path d="M150 94.8493H0V98.5047H150V94.8493Z" fill="#E0E0E0"/>
<path d="M143.644 98.5046H6.35599V100H143.644V98.5046Z" fill="#E0E0E0"/>
<path opacity="0.1" d="M143.644 98.5046H6.35599V99.0031H143.644V98.5046Z" fill="black"/>
<path d="M90.1425 82.0175L88.9739 92.0461L83.7211 93.1624L78.483 92.0461L77.3159 82.0175H90.1425Z" fill="#E44D26"/>
<path d="M83.7288 92.3093L87.9731 91.4081L88.97 82.8377H83.7288V92.3093Z" fill="#F16529"/>
<path d="M81.4575 85.2981H83.7288V84.0679H79.703L79.7413 84.3981L80.1363 87.7879H83.7296V86.5577H81.6047L81.4575 85.2981ZM81.8225 88.403H80.2122L80.4369 90.3347L83.7219 91.0362H83.7296V89.7525H83.7227L81.9345 89.3824L81.8225 88.403Z" fill="#EBEBEB"/>
<path d="M78.5099 79.2916H79.3258V79.909H80.0719V79.2916H80.8878V81.1622H80.0719V80.5359H79.3258V81.1622H78.5099V79.2916ZM81.9605 79.912H81.242V79.2916H83.495V79.912H82.7764V81.1622H81.9613V79.912H81.9605ZM83.8531 79.2916H84.7042L85.228 79.949L85.7509 79.2916H86.6021V81.1622H85.7893V80.2351L85.228 80.9001H85.2142L84.6521 80.2351V81.1622H83.8531V79.2916ZM87.0078 79.2916H87.8237V80.5435H88.9739V81.1616H87.0101V79.2916H87.0078Z" fill="black"/>
<path d="M83.7234 87.7879H85.7003L85.514 89.3836L83.7234 89.7537V91.0362L87.0154 90.3371L87.0392 90.1291L87.4165 86.8902L87.4556 86.5601H83.7234V87.7903V87.7879ZM83.7234 85.2952V85.2981H87.602L87.6342 85.0214L87.7109 84.3975L87.7493 84.0673H83.7234V85.2946V85.2952Z" fill="white"/>
<path d="M127.857 0.119934H86.9655V29.5161H127.857V0.119934Z" fill="url(#paint7_linear)"/>
<path d="M126.696 0.955078H88.1272V28.681H126.696V0.955078Z" fill="white"/>
<path d="M124.837 2.29126H89.9858V27.3448H124.837V2.29126Z" fill="#6C63FF"/>
<path d="M107.233 23.4369L99.3754 22.0375L97.6247 9.42389H116.865L115.112 22.0356L107.233 23.4369Z" fill="#264DE4"/>
<path d="M113.611 21.2331L115.109 10.4558H107.246V22.3642L113.611 21.2331Z" fill="#2965F1"/>
<path d="M101.643 15.132L101.859 16.6787H107.25V15.132H101.643ZM101.209 12.0008L101.428 13.5475H107.249V12.0008H101.205H101.209ZM107.249 19.1497H107.238L104.556 18.6842L104.384 17.4502H101.962L102.299 19.8792L107.233 20.7609H107.244L107.249 19.1497Z" fill="#EBEBEB"/>
<path d="M102.153 5.99455H105.07V6.77826H103.372V7.56197H105.07V8.34568H102.153V5.99455ZM105.658 5.99455H108.575V6.67604H106.874V6.81234H108.571V8.37975H105.654V7.66419H107.351V7.5279H105.654V5.99455H105.658ZM109.164 5.99455H112.08V6.67604H110.374V6.81234H112.072V8.37975H109.154V7.66419H110.852V7.5279H109.154V5.99455H109.164Z" fill="black"/>
<path d="M112.835 15.1319L113.27 12.0008H107.233V13.5475H110.627L110.408 15.1295H107.233V16.6762H110.199L109.915 18.6842L107.233 19.1509V20.7603L112.17 19.8811L112.206 19.6194L112.775 15.5463L112.834 15.1307L112.835 15.1319Z" fill="white"/>
<path d="M80.2277 27.3448H26.0925V64.424H80.2277V27.3448Z" fill="url(#paint8_linear)"/>
<path d="M79.0659 28.1799H27.2542V63.5889H79.0659V28.1799Z" fill="white"/>
<path d="M77.2072 29.5161H29.1129V62.2527H77.2072V29.5161Z" fill="#6C63FF"/>
<path d="M38.4798 34.6049H67.696V55.9419H38.4798V34.6049Z" fill="#F7DF1E"/>
<path d="M46.1632 52.4359L48.3991 51.4475C48.831 52.0061 49.2228 52.4788 50.1643 52.4788C51.0668 52.4788 51.6352 52.221 51.6352 51.2188V44.4005H54.3807V51.2464C54.3807 53.3229 52.7154 54.2683 50.2819 54.2683C48.086 54.2683 46.8116 53.4372 46.1643 52.4351L46.1632 52.4359ZM55.8716 52.2202L58.1064 51.2748C58.6948 51.9769 59.4597 52.491 60.8129 52.491C61.9509 52.491 62.6758 52.0759 62.6758 51.5026C62.6758 50.815 61.9309 50.5718 60.6775 50.1704L59.9914 49.9555C58.0109 49.3401 56.6965 48.5666 56.6965 46.9336C56.6965 45.4295 58.2651 44.2838 60.7164 44.2838C62.4615 44.2838 63.7138 44.7281 64.6186 45.8876L62.4815 46.8906C62.0108 46.2744 61.5012 46.0311 60.7164 46.0311C59.9126 46.0311 59.4019 46.4033 59.4019 46.8906C59.4019 47.4922 59.9115 47.7355 61.0883 48.1068L61.7743 48.3217C64.1057 49.0515 65.4223 49.7966 65.4223 51.4726C65.4223 53.2775 63.4807 54.2659 60.8707 54.2659C58.3173 54.2659 56.6743 53.374 55.8749 52.2178" fill="black"/>
<defs>
<linearGradient id="paint0_linear" x1="13636.9" y1="3641.32" x2="13636.9" y2="0" gradientUnits="userSpaceOnUse">
<stop stop-color="#808080" stop-opacity="0.25"/>
<stop offset="0.53514" stop-color="#808080" stop-opacity="0.12"/>
<stop offset="1" stop-color="#808080" stop-opacity="0.1"/>
</linearGradient>
<linearGradient id="paint1_linear" x1="34734.7" y1="13859.9" x2="34734.7" y2="7551.72" gradientUnits="userSpaceOnUse">
<stop stop-color="#808080" stop-opacity="0.25"/>
<stop offset="0.53514" stop-color="#808080" stop-opacity="0.12"/>
<stop offset="1" stop-color="#808080" stop-opacity="0.1"/>
</linearGradient>
<linearGradient id="paint2_linear" x1="-2761.1" y1="14064.1" x2="-2761.1" y2="11718.4" gradientUnits="userSpaceOnUse">
<stop stop-color="#808080" stop-opacity="0.25"/>
<stop offset="0.53514" stop-color="#808080" stop-opacity="0.12"/>
<stop offset="1" stop-color="#808080" stop-opacity="0.1"/>
</linearGradient>
<linearGradient id="paint3_linear" x1="-2974.54" y1="14064.1" x2="-2974.54" y2="11718.4" gradientUnits="userSpaceOnUse">
<stop stop-color="#808080" stop-opacity="0.25"/>
<stop offset="0.53514" stop-color="#808080" stop-opacity="0.12"/>
<stop offset="1" stop-color="#808080" stop-opacity="0.1"/>
</linearGradient>
<linearGradient id="paint4_linear" x1="1520.26" y1="12570.1" x2="1520.26" y2="10224.4" gradientUnits="userSpaceOnUse">
<stop stop-color="#808080" stop-opacity="0.25"/>
<stop offset="0.53514" stop-color="#808080" stop-opacity="0.12"/>
<stop offset="1" stop-color="#808080" stop-opacity="0.1"/>
</linearGradient>
<linearGradient id="paint5_linear" x1="1747" y1="12570.1" x2="1747" y2="10224.4" gradientUnits="userSpaceOnUse">
<stop stop-color="#808080" stop-opacity="0.25"/>
<stop offset="0.53514" stop-color="#808080" stop-opacity="0.12"/>
<stop offset="1" stop-color="#808080" stop-opacity="0.1"/>
</linearGradient>
<linearGradient id="paint6_linear" x1="4051.38" y1="12958.4" x2="4051.38" y2="10464.2" gradientUnits="userSpaceOnUse">
<stop stop-color="#808080" stop-opacity="0.25"/>
<stop offset="0.53514" stop-color="#808080" stop-opacity="0.12"/>
<stop offset="1" stop-color="#808080" stop-opacity="0.1"/>
</linearGradient>
<linearGradient id="paint7_linear" x1="23136.6" y1="6334.03" x2="23136.6" y2="25.8584" gradientUnits="userSpaceOnUse">
<stop stop-color="#808080" stop-opacity="0.25"/>
<stop offset="0.53514" stop-color="#808080" stop-opacity="0.12"/>
<stop offset="1" stop-color="#808080" stop-opacity="0.1"/>
</linearGradient>
<linearGradient id="paint8_linear" x1="53.1601" y1="64.424" x2="53.1601" y2="27.3448" gradientUnits="userSpaceOnUse">
<stop stop-color="#808080" stop-opacity="0.25"/>
<stop offset="0.53514" stop-color="#808080" stop-opacity="0.12"/>
<stop offset="1" stop-color="#808080" stop-opacity="0.1"/>
</linearGradient>
</defs>
</svg>
