<svg width="400" height="251" viewBox="0 0 400 251" fill="none" xmlns="http://www.w3.org/2000/svg">
<g id="ReactJs">
<g id="Group1">
<path id="Vector" d="M277.141 113.108L279.628 112.185C279.866 112.096 280.101 112 280.35 111.908C275.747 110.303 271.857 107.262 269.321 103.285C266.785 99.308 265.753 94.6321 266.395 90.0259C267.037 85.4198 269.314 81.1576 272.853 77.9402C276.392 74.7228 280.981 72.7417 285.866 72.3225L284.134 80.5973L290.711 72.4183H290.769C296.447 73.1576 301.582 76.0027 305.046 80.3277C308.509 84.6527 310.017 90.1036 309.238 95.4816C309.184 95.868 309.097 96.2441 309.022 96.6237C311.047 95.1089 312.946 93.4369 314.368 91.4947C317.256 87.5488 318.235 82.6865 319.231 76.7335C321.206 64.9436 322.986 53.0239 324.588 41.111C319.666 39.7044 315.436 36.6812 312.656 32.5847C309.877 28.4882 308.732 23.587 309.426 18.7623C309.516 18.14 309.643 17.5347 309.787 16.9364C309.823 16.7859 309.859 16.6355 309.899 16.4884C310.054 15.9106 310.227 15.3429 310.43 14.7788C310.462 14.6864 310.505 14.601 310.538 14.5121C310.718 14.0436 310.899 13.582 311.134 13.1443C311.213 12.9734 311.292 12.8024 311.375 12.6417C311.625 12.1527 311.888 11.674 312.177 11.209C312.274 11.0551 312.379 10.9081 312.477 10.7542C312.7 10.4123 312.935 10.0704 313.177 9.75236C313.307 9.58139 313.433 9.41043 313.567 9.24288L313.664 9.10953C316.729 5.30955 321.104 2.64715 326.027 1.58516C330.95 0.523182 336.11 1.12878 340.61 3.29668L338.357 14.0641L344.856 5.98085C348.351 8.78559 350.808 12.5753 351.868 16.7965C352.928 21.0177 352.535 25.4494 350.747 29.4442H350.773C350.711 29.581 350.635 29.7109 350.574 29.8477C350.455 30.1007 350.332 30.3504 350.213 30.6C350.047 30.918 349.852 31.2291 349.689 31.5369C349.552 31.7694 349.419 32.0019 349.271 32.2207C349.058 32.5627 348.827 32.8704 348.596 33.1884C348.458 33.373 348.332 33.5645 348.191 33.7457C347.83 34.221 347.426 34.6758 347.014 35.1135C346.87 35.2673 346.715 35.4075 346.563 35.558C346.271 35.852 345.978 36.1427 345.668 36.4197C345.476 36.5906 345.274 36.7616 345.076 36.9189C344.791 37.1582 344.498 37.3907 344.199 37.6027C343.986 37.7635 343.769 37.9173 343.552 38.0678C343.238 38.2832 342.921 38.4849 342.599 38.6867C342.383 38.82 342.166 38.9534 341.946 39.0799C341.585 39.2885 341.206 39.4799 340.827 39.668C340.635 39.7603 340.466 39.8629 340.253 39.9518C339.682 40.2151 339.097 40.4579 338.502 40.6733C338.39 40.7143 338.271 40.7451 338.159 40.7827C337.661 40.9537 337.159 41.1246 336.65 41.2443C336.43 41.3024 336.206 41.3503 335.982 41.4016C335.567 41.4974 335.148 41.5863 334.726 41.6615C334.485 41.7025 334.236 41.7401 333.978 41.7743C333.563 41.8324 333.144 41.8769 332.722 41.9111C332.473 41.9316 332.227 41.9521 331.975 41.9658C331.52 41.9863 331.061 41.9897 330.603 41.9863C330.573 41.9846 330.543 41.9846 330.513 41.9863C329.834 47.0013 329.122 52.0163 328.375 57.0313C330.126 54.7927 332.341 52.9164 334.885 51.5174C337.429 50.1185 340.247 49.2265 343.168 48.8961C346.088 48.5657 349.049 48.8039 351.869 49.596C354.689 50.3881 357.309 51.7175 359.567 53.5026L353.906 62.5911L363.007 56.9185C366.448 61.2321 367.941 66.6628 367.159 72.0182C366.892 73.8986 366.345 75.7336 365.534 77.4686C363.797 81.2254 360.908 84.4008 357.241 86.5828C353.575 88.7649 349.3 89.8527 344.973 89.7053C340.646 89.5578 336.465 88.1819 332.974 85.756C329.482 83.33 326.841 79.9662 325.393 76.1009C325.31 76.607 325.231 77.1267 325.148 77.6259C324.267 82.8746 323.173 89.4089 319.289 94.7225C316.657 98.3333 313.032 101 309.509 103.346C307.218 104.873 304.874 106.329 302.477 107.713C299.96 109.922 296.925 111.533 293.621 112.411C289.77 114.278 285.836 115.966 281.819 117.475L279.31 118.405C277.054 119.239 274.744 120.094 272.451 121.003C272.812 121.034 273.173 121.062 273.534 121.106C278.077 121.697 282.303 123.64 285.604 126.655C288.904 129.669 291.107 133.6 291.895 137.878L276.621 145.78L291.848 145.134C291.239 148.332 289.825 151.344 287.726 153.914C284.282 158.136 279.235 160.918 273.659 161.668C268.083 162.417 262.418 161.076 257.87 157.929L258.628 159.266C259.134 160.148 259.632 161.027 260.116 161.899C266.733 173.777 267.213 184.035 261.469 190.788L256.776 187.215C262.368 180.643 257.931 170.197 254.791 164.555C254.314 163.701 253.823 162.846 253.347 161.97C249.097 154.506 244.278 146.047 246.209 137.043C249.097 123.469 264.639 117.724 277.141 113.108Z" fill="#F2F2F2"/>
<path id="Vector_2" d="M97.3285 177.467L95.3863 176.745C95.1986 176.677 95.0253 176.598 94.8303 176.53C98.424 175.275 101.46 172.899 103.439 169.793C105.419 166.687 106.224 163.036 105.723 159.439C105.221 155.843 103.443 152.514 100.68 150.002C97.9174 147.489 94.3344 145.941 90.5199 145.612L91.8737 152.075L86.7401 145.688H86.6932C84.496 145.972 82.3795 146.663 80.4646 147.722C78.5496 148.781 76.8738 150.188 75.5328 151.86C74.1918 153.533 73.2119 155.44 72.6491 157.471C72.0863 159.503 71.9516 161.62 72.2527 163.701C72.296 164.005 72.3646 164.296 72.4224 164.593C70.8296 163.459 69.4233 162.107 68.2491 160.582C66 157.505 65.2275 153.702 64.4477 149.056C62.9206 139.847 61.5343 130.54 60.2888 121.246C64.1313 120.146 67.4335 117.784 69.6019 114.584C71.7704 111.385 72.6629 107.558 72.1191 103.791C72.0469 103.305 71.9495 102.833 71.8339 102.365L71.7473 102.023C71.6246 101.571 71.491 101.127 71.3321 100.696C71.3069 100.624 71.2744 100.556 71.2455 100.488C71.1047 100.122 70.9495 99.7626 70.7834 99.4104C70.7184 99.2805 70.657 99.1471 70.5921 99.0172C70.3971 98.6377 70.1913 98.265 69.9675 97.9025C69.8917 97.7794 69.8087 97.6632 69.7329 97.5606C69.556 97.2939 69.3719 97.0306 69.1841 96.7776C69.083 96.6442 68.9856 96.5074 68.8809 96.3775L68.8051 96.2749C66.4112 93.3076 62.9961 91.2276 59.1524 90.3957C55.3087 89.5637 51.2788 90.0324 47.7617 91.7204L49.5235 100.132L44.4441 93.8198C41.7146 96.0105 39.7959 98.97 38.9678 102.266C38.1398 105.563 38.4458 109.024 39.8412 112.144H39.8231C39.8701 112.25 39.9278 112.353 39.9784 112.459C40.0722 112.657 40.1661 112.852 40.2672 113.047C40.3971 113.293 40.5343 113.536 40.6787 113.775C40.7834 113.96 40.8881 114.141 41.0036 114.319C41.1697 114.575 41.3646 114.825 41.5307 115.074C41.639 115.218 41.7365 115.368 41.8484 115.509C42.1372 115.878 42.4441 116.234 42.7654 116.579C42.8773 116.699 43 116.808 43.1264 116.921C43.3538 117.15 43.5849 117.376 43.8267 117.605C43.9747 117.741 44.1336 117.868 44.2888 117.994C44.5126 118.184 44.7401 118.365 44.9711 118.538C45.1372 118.661 45.3069 118.781 45.4765 118.901C45.722 119.068 45.9711 119.243 46.2202 119.383C46.3899 119.489 46.5596 119.591 46.7329 119.69C47.0181 119.855 47.3105 120.002 47.6065 120.149C47.7581 120.224 47.9025 120.303 48.0542 120.374C48.5018 120.579 48.9567 120.768 49.4224 120.935C49.509 120.969 49.6029 120.99 49.6895 121.021C50.0758 121.154 50.4693 121.277 50.8701 121.383C51.0397 121.427 51.2311 121.465 51.3899 121.503C51.7148 121.578 52.0397 121.65 52.3719 121.708L52.9531 121.797C53.278 121.841 53.6065 121.875 53.935 121.903C54.13 121.92 54.3213 121.934 54.5199 121.944C54.8809 121.961 55.2419 121.964 55.6029 121.961H55.6715C56.201 125.886 56.7569 129.808 57.3394 133.727C55.9745 131.976 54.2463 130.508 52.2607 129.412C50.2752 128.317 48.0742 127.617 45.7929 127.357C43.5116 127.096 41.1982 127.28 38.9945 127.897C36.7909 128.513 34.7436 129.55 32.9784 130.943L37.361 138.001L30.2563 133.573C28.9237 135.24 27.9508 137.14 27.3934 139.163C26.8359 141.187 26.7047 143.295 27.0072 145.366C27.2168 146.836 27.6459 148.271 28.2816 149.627C29.6386 152.56 31.8952 155.04 34.7586 156.744C37.622 158.448 40.9599 159.298 44.3394 159.183C47.7189 159.068 50.9839 157.993 53.7108 156.099C56.4376 154.205 58.5005 151.578 59.6318 148.56C59.6968 148.953 59.7581 149.353 59.8231 149.75C60.509 153.853 61.3646 158.955 64.3971 163.112C66.4549 165.93 69.2852 168.012 72.0361 169.845C73.8267 171.04 75.6571 172.179 77.5271 173.264C79.4932 174.99 81.8639 176.249 84.4441 176.937C87.4477 178.393 90.5235 179.72 93.6643 180.889L95.621 181.618C97.3827 182.267 99.1877 182.934 100.968 183.645C100.686 183.669 100.401 183.69 100.116 183.728C96.5696 184.188 93.2698 185.703 90.6925 188.055C88.1151 190.407 86.3935 193.474 85.7762 196.813L97.6895 202.968L85.7979 202.465C86.3214 205.122 87.5472 207.61 89.3608 209.697C91.1745 211.784 93.5168 213.401 96.1692 214.398C98.8215 215.395 101.697 215.74 104.528 215.399C107.359 215.058 110.053 214.044 112.357 212.45C112.159 212.792 111.964 213.134 111.765 213.493C111.372 214.177 110.982 214.86 110.603 215.544C105.437 224.821 105.061 232.836 109.549 238.112L113.206 235.322C108.838 230.193 112.303 222.031 114.758 217.623C115.119 216.957 115.513 216.283 115.899 215.606C119.217 209.793 122.978 203.17 121.48 196.136C119.238 185.557 107.09 181.084 97.3285 177.467Z" fill="#F2F2F2"/>
<path id="Vector_3" d="M200 250.014C310.457 250.014 400 246.417 400 241.979C400 237.541 310.457 233.944 200 233.944C89.543 233.944 0 237.541 0 241.979C0 246.417 89.543 250.014 200 250.014Z" fill="#3F3D56"/>
<path id="Vector_4" opacity="0.1" d="M200 250.014C310.457 250.014 400 246.417 400 241.979C400 237.541 310.457 233.944 200 233.944C89.543 233.944 0 237.541 0 241.979C0 246.417 89.543 250.014 200 250.014Z" fill="black"/>
<path id="Vector_5" d="M200 245.569C310.457 245.569 400 241.972 400 237.534C400 233.096 310.457 229.499 200 229.499C89.543 229.499 0 233.096 0 237.534C0 241.972 89.543 245.569 200 245.569Z" fill="#3F3D56"/>
<path id="Vector_6" d="M30.6859 234.675C29.6029 232.791 30.8303 230.483 32.2311 228.801C33.6318 227.119 35.3394 225.382 35.3033 223.231C35.2527 220.154 31.8015 218.338 29.0469 216.707C27.0032 215.496 25.1176 214.06 23.4296 212.429C22.724 211.801 22.14 211.06 21.704 210.241C21.1336 209.037 21.1516 207.67 21.1877 206.35C21.3081 201.959 21.5367 197.573 21.8737 193.192" stroke="#3F3D56" stroke-width="4" stroke-miterlimit="10"/>
<path id="Vector_7" d="M16.6462 192.949C16.6852 192.146 16.9371 191.365 17.3788 190.679C17.8205 189.992 18.4376 189.422 19.1733 189.021L20.3069 191.144L20.2744 188.573C20.815 188.42 21.3789 188.356 21.9422 188.381C22.9397 188.427 23.9004 188.752 24.703 189.315C25.5056 189.878 26.1142 190.654 26.4518 191.544C26.7895 192.434 26.8412 193.399 26.6003 194.317C26.3594 195.235 25.8368 196.065 25.0984 196.702C24.3601 197.339 23.439 197.754 22.4516 197.896C21.4641 198.037 20.4546 197.899 19.5503 197.497C18.646 197.096 17.8876 196.449 17.3707 195.64C16.8539 194.831 16.6018 193.894 16.6462 192.949V192.949Z" fill="#6C63FF"/>
<path id="Vector_8" d="M25.6823 225.433C26.1858 226.382 27.0083 227.146 28.0202 227.604C29.0322 228.061 30.1761 228.187 31.272 227.962C32.3679 227.736 33.3534 227.172 34.0734 226.357C34.7934 225.543 35.207 224.525 35.2491 223.463C35.2852 222.8 35.1732 222.137 34.9206 221.518C34.5574 220.601 33.9064 219.812 33.0551 219.257C32.2039 218.702 31.1934 218.407 30.1598 218.413C29.1263 218.419 28.1194 218.724 27.2749 219.288C26.4304 219.853 25.7889 220.649 25.4368 221.569L28.6029 224.007L25.1228 223.241C25.1208 224.004 25.3127 224.756 25.6823 225.433V225.433Z" fill="#6C63FF"/>
<path id="Vector_9" d="M28.1841 216.115C29.4466 216.206 30.699 215.844 31.6935 215.102C32.688 214.36 33.3521 213.291 33.5545 212.107C33.7569 210.923 33.4828 209.711 32.7865 208.709C32.0902 207.708 31.0223 206.99 29.7942 206.699L29.8195 208.678L28.6715 206.528C27.3286 206.468 26.0159 206.916 25.022 207.774C24.0281 208.631 23.4345 209.827 23.3718 211.099C23.3091 212.371 23.7824 213.614 24.6876 214.556C25.5928 215.497 26.8557 216.059 28.1985 216.119L28.1841 216.115Z" fill="#6C63FF"/>
<path id="Vector_10" d="M15.8845 208.364C16.5482 208.393 17.2116 208.299 17.8367 208.086C18.4619 207.873 19.0366 207.545 19.5281 207.121C20.0195 206.698 20.4181 206.187 20.701 205.617C20.9839 205.048 21.1456 204.431 21.1769 203.802C21.2082 203.174 21.1084 202.545 20.8833 201.953C20.6583 201.361 20.3122 200.817 19.865 200.351C19.4178 199.886 18.8782 199.508 18.277 199.24C17.6758 198.972 17.0247 198.819 16.361 198.79C15.4135 198.745 14.4721 198.956 13.6462 199.398L14.5415 201.723L12.6967 200.048C11.7101 200.904 11.122 202.095 11.0614 203.361C11.0369 203.804 11.0807 204.247 11.1913 204.678C11.4433 205.692 12.038 206.601 12.885 207.266C13.7321 207.932 14.7852 208.317 15.8845 208.364V208.364Z" fill="#6C63FF"/>
<path id="Vector_11" opacity="0.1" d="M17.3285 194.228C18.4982 194.351 19.6354 194.697 20.8086 194.765C21.9819 194.833 23.2707 194.567 24.0144 193.705C24.4151 193.237 24.6137 192.649 24.9494 192.142C25.271 191.67 25.7097 191.279 26.2274 191.004C26.5331 191.609 26.7011 192.268 26.7204 192.939C26.7397 193.61 26.61 194.277 26.3396 194.897C26.0692 195.517 25.6642 196.076 25.1508 196.539C24.6375 197.001 24.0272 197.356 23.3597 197.581C22.6922 197.805 21.9823 197.894 21.2761 197.842C20.5698 197.79 19.883 197.598 19.2602 197.279C18.6374 196.959 18.0925 196.519 17.6608 195.987C17.2291 195.455 16.9204 194.843 16.7545 194.191C16.9458 194.197 17.1372 194.211 17.3285 194.228Z" fill="black"/>
<path id="Vector_12" opacity="0.1" d="M15.8845 208.364C16.7583 208.406 17.6287 208.232 18.4104 207.86C19.1922 207.488 19.8585 206.93 20.3443 206.24C20.83 205.551 21.1186 204.754 21.1816 203.928C21.2447 203.101 21.0801 202.273 20.704 201.525C20.3018 201.782 19.9561 202.111 19.6859 202.493C19.3249 203.009 19.1047 203.604 18.6823 204.079C17.8917 204.958 16.5451 205.245 15.3213 205.191C14.0975 205.136 12.917 204.811 11.7112 204.705C11.5415 204.705 11.3719 204.678 11.2022 204.674C11.453 205.688 12.0457 206.596 12.8907 207.262C13.7356 207.928 14.7866 208.315 15.8845 208.364V208.364Z" fill="black"/>
<path id="Vector_13" opacity="0.1" d="M28.1841 216.115C29.0501 216.157 29.913 215.988 30.6898 215.623C31.4665 215.258 32.1311 214.71 32.6195 214.031C33.1079 213.352 33.4038 212.566 33.4787 211.748C33.5535 210.93 33.4048 210.107 33.0469 209.359C32.626 209.618 32.2589 209.948 31.9639 210.333C31.5704 210.86 31.3249 211.465 30.8809 211.951C30.0289 212.853 28.5921 213.171 27.296 213.141C26 213.11 24.8339 212.823 23.5848 212.734C23.8897 213.678 24.4953 214.509 25.3187 215.115C26.1421 215.72 27.1429 216.07 28.1841 216.115V216.115Z" fill="black"/>
<path id="Vector_14" opacity="0.1" d="M25.6823 225.433C26.1858 226.382 27.0082 227.146 28.0202 227.603C29.0322 228.061 30.1761 228.187 31.272 227.962C32.3679 227.736 33.3534 227.172 34.0734 226.357C34.7934 225.543 35.207 224.525 35.2491 223.463C35.2851 222.8 35.1732 222.137 34.9206 221.518C34.5032 221.776 34.1285 222.092 33.8087 222.455C33.3249 223.012 33.0108 223.641 32.4513 224.164C31.4152 225.129 29.7437 225.532 28.2563 225.563C27.3964 225.566 26.537 225.523 25.6823 225.433V225.433Z" fill="black"/>
<path id="Vector_15" d="M38.3357 232.508C38.3357 232.508 34.3357 232.391 33.1336 231.578C31.9314 230.764 26.9964 229.793 26.6823 231.099C26.3682 232.405 20.6715 237.596 25.1877 237.616C29.704 237.637 35.6787 236.932 36.8809 236.248C38.083 235.564 38.3357 232.508 38.3357 232.508Z" fill="#656380"/>
<path id="Vector_16" opacity="0.2" d="M25.1047 237.161C29.6209 237.195 35.5956 236.477 36.8014 235.794C37.7148 235.267 38.0794 233.369 38.2021 232.494H38.3357C38.3357 232.494 38.083 235.547 36.8917 236.255C35.7003 236.963 29.7112 237.65 25.1985 237.623C23.8953 237.623 23.444 237.175 23.4693 236.522C23.639 236.908 24.1372 237.161 25.1047 237.161Z" fill="black"/>
<path id="Vector_17" d="M380.866 237.753C379.783 235.869 381.011 233.561 382.412 231.878C383.812 230.196 385.52 228.459 385.484 226.308C385.433 223.231 381.982 221.415 379.227 219.784C377.184 218.573 375.298 217.137 373.61 215.507C372.905 214.878 372.321 214.138 371.884 213.318C371.314 212.115 371.332 210.747 371.368 209.427C371.486 205.037 371.715 200.651 372.054 196.27" stroke="#3F3D56" stroke-width="4" stroke-miterlimit="10"/>
<path id="Vector_18" d="M366.827 196.027C366.866 195.224 367.118 194.443 367.559 193.756C368.001 193.069 368.618 192.499 369.354 192.098L370.487 194.221L370.455 191.65C370.995 191.498 371.559 191.433 372.123 191.459C373.12 191.506 374.08 191.831 374.882 192.394C375.684 192.958 376.292 193.733 376.63 194.624C376.967 195.514 377.018 196.479 376.777 197.396C376.535 198.314 376.012 199.144 375.274 199.78C374.535 200.417 373.614 200.832 372.627 200.973C371.64 201.114 370.63 200.976 369.726 200.574C368.822 200.172 368.064 199.526 367.547 198.717C367.031 197.908 366.779 196.972 366.823 196.027H366.827Z" fill="#6C63FF"/>
<path id="Vector_19" d="M375.863 228.51C376.366 229.46 377.189 230.223 378.201 230.681C379.213 231.139 380.357 231.265 381.453 231.039C382.548 230.813 383.534 230.249 384.254 229.435C384.974 228.62 385.388 227.602 385.43 226.541C385.466 225.878 385.354 225.215 385.101 224.595C384.738 223.679 384.087 222.89 383.236 222.335C382.384 221.779 381.374 221.485 380.34 221.49C379.307 221.496 378.3 221.801 377.455 222.366C376.611 222.93 375.969 223.726 375.617 224.647L378.783 227.085L375.303 226.319C375.301 227.081 375.493 227.833 375.863 228.51V228.51Z" fill="#6C63FF"/>
<path id="Vector_20" d="M378.365 219.193C379.627 219.283 380.88 218.922 381.874 218.179C382.869 217.437 383.533 216.368 383.735 215.185C383.937 214.001 383.663 212.788 382.967 211.787C382.271 210.785 381.203 210.068 379.975 209.776L380 211.756L378.852 209.605C377.509 209.546 376.196 209.994 375.203 210.851C374.209 211.709 373.615 212.905 373.552 214.177C373.49 215.448 373.963 216.692 374.868 217.633C375.773 218.575 377.036 219.137 378.379 219.196L378.365 219.193Z" fill="#6C63FF"/>
<path id="Vector_21" d="M366.065 211.441C367.405 211.501 368.716 211.054 369.709 210.199C370.701 209.343 371.294 208.149 371.357 206.88C371.421 205.61 370.949 204.369 370.046 203.429C369.142 202.489 367.882 201.927 366.541 201.867C365.594 201.822 364.653 202.033 363.827 202.476L364.722 204.801L362.877 203.125C361.891 203.981 361.302 205.173 361.242 206.439C361.217 206.881 361.261 207.325 361.372 207.755C361.624 208.77 362.218 209.679 363.066 210.344C363.913 211.009 364.966 211.394 366.065 211.441V211.441Z" fill="#6C63FF"/>
<path id="Vector_22" opacity="0.1" d="M367.509 197.306C368.679 197.429 369.816 197.774 370.989 197.842C372.162 197.911 373.451 197.644 374.195 196.782C374.596 196.314 374.794 195.726 375.13 195.22C375.451 194.747 375.89 194.356 376.408 194.081C376.714 194.686 376.882 195.346 376.901 196.017C376.92 196.687 376.79 197.354 376.52 197.974C376.25 198.594 375.845 199.154 375.331 199.616C374.818 200.079 374.208 200.433 373.54 200.658C372.873 200.883 372.163 200.972 371.457 200.92C370.75 200.868 370.064 200.676 369.441 200.356C368.818 200.036 368.273 199.596 367.841 199.064C367.41 198.532 367.101 197.92 366.935 197.268C367.126 197.275 367.318 197.289 367.509 197.306Z" fill="black"/>
<path id="Vector_23" opacity="0.1" d="M366.065 211.441C366.939 211.483 367.809 211.31 368.591 210.937C369.373 210.565 370.039 210.007 370.525 209.318C371.011 208.629 371.299 207.832 371.362 207.005C371.425 206.179 371.261 205.351 370.884 204.602C370.482 204.86 370.137 205.188 369.866 205.57C369.505 206.086 369.285 206.681 368.863 207.157C368.072 208.035 366.726 208.323 365.502 208.268C364.278 208.213 363.097 207.888 361.892 207.782C361.722 207.782 361.552 207.755 361.383 207.752C361.633 208.765 362.226 209.674 363.071 210.339C363.916 211.005 364.967 211.392 366.065 211.441V211.441Z" fill="black"/>
<path id="Vector_24" opacity="0.1" d="M378.365 219.193C379.231 219.235 380.093 219.065 380.87 218.7C381.647 218.335 382.312 217.787 382.8 217.108C383.288 216.43 383.584 215.643 383.659 214.825C383.734 214.007 383.585 213.184 383.227 212.436C382.806 212.695 382.439 213.026 382.144 213.411C381.751 213.937 381.505 214.542 381.061 215.028C380.209 215.931 378.773 216.249 377.477 216.218C376.18 216.187 375.014 215.9 373.765 215.811C374.07 216.755 374.676 217.587 375.499 218.192C376.323 218.798 377.323 219.147 378.365 219.193V219.193Z" fill="black"/>
<path id="Vector_25" opacity="0.1" d="M375.863 228.51C376.366 229.46 377.189 230.223 378.201 230.681C379.213 231.139 380.357 231.265 381.452 231.039C382.548 230.813 383.534 230.249 384.254 229.435C384.974 228.62 385.387 227.602 385.43 226.541C385.466 225.878 385.354 225.215 385.101 224.595C384.684 224.854 384.309 225.17 383.989 225.532C383.505 226.09 383.191 226.719 382.632 227.242C381.596 228.206 379.924 228.61 378.437 228.64C377.577 228.644 376.717 228.6 375.863 228.51V228.51Z" fill="black"/>
<path id="Vector_26" d="M388.516 235.585C388.516 235.585 384.516 235.469 383.314 234.655C382.112 233.841 377.177 232.87 376.863 234.176C376.549 235.482 370.852 240.673 375.368 240.693C379.884 240.714 385.859 240.01 387.061 239.326C388.264 238.642 388.516 235.585 388.516 235.585Z" fill="#656380"/>
<path id="Vector_27" opacity="0.2" d="M375.285 240.239C379.801 240.273 385.776 239.555 386.982 238.871C387.895 238.344 388.26 236.447 388.383 235.571H388.516C388.516 235.571 388.263 238.625 387.072 239.333C385.881 240.04 379.892 240.728 375.379 240.7C374.076 240.7 373.625 240.252 373.65 239.599C373.819 239.986 374.318 240.239 375.285 240.239Z" fill="black"/>
<path id="Vector_28" d="M269.159 113.231C266.771 112.456 264.365 111.738 261.939 111.077C262.338 109.529 262.71 107.974 263.054 106.41C268.52 81.2743 264.946 61.0251 252.74 54.3608C241.036 47.9667 221.895 54.6344 202.56 70.565C200.653 72.1425 198.792 73.7609 196.975 75.4205C195.755 74.3149 194.515 73.2309 193.256 72.1687C173 55.1302 152.708 47.953 140.498 54.6378C128.805 61.049 125.336 80.0844 130.264 103.907C130.745 106.266 131.297 108.612 131.921 110.944C129.051 111.717 126.274 112.541 123.617 113.419C99.8664 121.246 84.6967 133.556 84.6967 146.306C84.6967 159.474 100.982 172.683 125.722 180.691C127.729 181.336 129.751 181.936 131.787 182.49C131.128 184.997 130.54 187.525 130.025 190.074C125.332 213.482 129 232.07 140.661 238.44C152.708 245.026 172.924 238.255 192.607 221.959C194.162 220.67 195.722 219.302 197.3 217.873C199.268 219.671 201.289 221.418 203.361 223.111C222.43 238.652 241.267 244.93 252.913 238.539C264.946 231.943 268.856 211.975 263.78 187.684C263.395 185.828 262.946 183.935 262.433 182.004C263.856 181.608 265.247 181.196 266.606 180.77C292.325 172.7 309.061 159.652 309.061 146.306C309.061 133.508 293.401 121.133 269.17 113.231H269.159Z" fill="#53C1DE"/>
<path id="Vector_29" d="M263.581 172.153C262.354 172.539 261.097 172.909 259.812 173.271C256.677 164.063 252.881 155.069 248.451 146.351C252.712 137.749 256.36 128.887 259.372 119.824C261.664 120.453 263.895 121.116 266.04 121.817C286.801 128.584 299.466 138.592 299.466 146.306C299.466 154.513 285.787 165.185 263.581 172.153ZM254.368 189.448C256.614 200.188 256.931 209.899 255.451 217.486C254.116 224.308 251.43 228.856 248.108 230.678C241.036 234.552 225.917 229.516 209.61 216.225C207.74 214.7 205.859 213.076 203.967 211.352C210.766 204.223 217.049 196.668 222.773 188.737C232.997 187.916 243.15 186.431 253.159 184.292C253.616 186.042 254.022 187.752 254.375 189.421L254.368 189.448ZM161.184 230.015C154.274 232.326 148.773 232.391 145.448 230.576C138.372 226.708 135.43 211.769 139.444 191.766C139.925 189.402 140.471 187.051 141.079 184.712C151.047 186.739 161.149 188.125 171.314 188.86C177.205 196.763 183.639 204.29 190.574 211.393C189.181 212.672 187.756 213.916 186.3 215.124C177.596 222.332 168.87 227.433 161.184 230.015V230.015ZM128.823 172.102C117.881 168.559 108.848 163.957 102.653 158.937C97.0903 154.424 94.2816 149.941 94.2816 146.306C94.2816 138.568 106.462 128.697 126.773 121.992C129.324 121.15 131.898 120.383 134.495 119.69C137.511 128.854 141.164 137.818 145.43 146.525C141.111 155.357 137.414 164.45 134.361 173.743C132.498 173.239 130.652 172.692 128.823 172.102ZM139.671 102.163C135.455 81.753 138.253 66.3558 145.3 62.4988C152.805 58.3956 169.401 64.2495 186.895 78.9629C188.014 79.9032 189.137 80.8879 190.26 81.9035C183.375 88.9631 176.991 96.4473 171.152 104.307C161.082 105.162 151.082 106.634 141.213 108.714C140.638 106.544 140.124 104.362 139.671 102.166V102.163ZM236.462 124.795C234.27 121.207 231.996 117.665 229.643 114.168C236.801 115.026 243.657 116.162 250.097 117.557C248.031 123.766 245.634 129.873 242.917 135.854C240.845 132.126 238.693 128.44 236.462 124.795ZM196.982 88.3899C201.647 93.2077 206.054 98.2451 210.184 103.483C201.349 103.088 192.51 103.088 183.668 103.483C188.025 98.0393 192.491 92.9787 196.982 88.3934V88.3899ZM157.271 124.857C155.069 128.475 152.957 132.138 150.935 135.847C148.144 129.579 145.758 123.414 143.809 117.461C150.209 116.093 157.036 114.996 164.148 114.151C161.761 117.671 159.466 121.239 157.264 124.857H157.271ZM164.35 179.105C157.408 178.391 150.51 177.34 143.682 175.955C145.664 169.9 148.105 163.601 150.957 157.197C152.986 160.91 155.105 164.576 157.314 168.194C159.562 171.884 161.905 175.521 164.343 179.105H164.35ZM197.253 204.862C192.704 200.233 188.173 195.104 183.755 189.561C188.051 189.723 192.426 189.804 196.881 189.804C201.454 189.804 205.967 189.708 210.422 189.516C206.31 194.842 201.912 199.964 197.245 204.862H197.253ZM242.989 156.872C245.847 162.974 248.368 169.212 250.542 175.562C243.629 177.035 236.64 178.164 229.603 178.944C231.974 175.381 234.27 171.776 236.491 168.129C238.748 164.422 240.915 160.67 242.989 156.872ZM228.188 163.595C224.789 169.184 221.202 174.666 217.426 180.041C210.769 180.493 203.892 180.725 196.881 180.725C189.87 180.725 183.108 180.52 176.567 180.117C172.694 174.76 169.037 169.269 165.596 163.646C162.154 158.022 158.964 152.314 156.025 146.522C158.978 140.702 162.159 134.992 165.567 129.391C168.97 123.792 172.596 118.322 176.444 112.978C183.119 112.5 189.957 112.25 196.874 112.25C203.791 112.25 210.671 112.503 217.339 112.982C221.144 118.309 224.755 123.758 228.17 129.329C231.585 134.901 234.809 140.585 237.841 146.382C234.845 152.222 231.631 157.955 228.199 163.581L228.188 163.595ZM247.96 62.2253C255.473 66.3285 258.393 82.878 253.675 104.58C253.365 105.991 253.028 107.399 252.664 108.803C242.781 106.681 232.76 105.181 222.668 104.314C216.884 96.4471 210.549 88.9578 203.704 81.8967C205.389 80.3602 207.108 78.866 208.863 77.4139C225.426 63.7606 240.906 58.3717 247.96 62.2253Z" fill="white"/>
<path id="Vector_30" d="M196.874 127.329C200.836 127.329 204.71 128.442 208.005 130.527C211.3 132.613 213.868 135.577 215.385 139.044C216.901 142.512 217.298 146.327 216.525 150.009C215.752 153.69 213.843 157.071 211.041 159.725C208.239 162.379 204.669 164.187 200.783 164.919C196.896 165.651 192.867 165.275 189.206 163.839C185.545 162.403 182.416 159.97 180.214 156.85C178.013 153.729 176.838 150.06 176.838 146.306C176.837 143.814 177.355 141.346 178.362 139.044C179.369 136.741 180.844 134.649 182.705 132.886C184.566 131.124 186.775 129.726 189.206 128.773C191.637 127.819 194.242 127.329 196.874 127.329" fill="#53C1DE"/>
<path id="Vector_31" d="M298.458 230.107C300.17 227.105 298.227 223.426 295.996 220.748C293.765 218.071 291.04 215.278 291.097 211.858C291.18 206.952 296.675 204.059 301.069 201.457C304.325 199.528 307.329 197.24 310.018 194.642C311.101 193.599 312.137 192.484 312.769 191.151C313.679 189.236 313.653 187.048 313.596 184.955C313.406 177.955 313.044 170.963 312.513 163.981" stroke="#3F3D56" stroke-width="4" stroke-miterlimit="10"/>
<path id="Vector_32" d="M320.845 163.612C320.783 162.331 320.382 161.086 319.677 159.991C318.973 158.896 317.989 157.987 316.816 157.347L315.011 160.733L315.065 156.629C313.423 156.169 311.669 156.215 310.057 156.761C308.444 157.307 307.057 158.324 306.094 159.666C305.132 161.007 304.645 162.604 304.703 164.225C304.761 165.845 305.362 167.407 306.419 168.683C307.475 169.96 308.932 170.885 310.58 171.326C312.228 171.766 313.981 171.699 315.587 171.134C317.192 170.57 318.566 169.536 319.51 168.183C320.455 166.83 320.921 165.228 320.841 163.608L320.845 163.612Z" fill="#6C63FF"/>
<path id="Vector_33" d="M306.448 215.377C305.601 216.937 304.213 218.173 302.518 218.879C300.822 219.585 298.922 219.718 297.136 219.254C295.35 218.791 293.786 217.759 292.707 216.333C291.629 214.907 291.1 213.173 291.211 211.422C291.322 209.671 292.066 208.01 293.317 206.716C294.567 205.423 296.25 204.576 298.082 204.318C299.914 204.06 301.784 204.406 303.378 205.299C304.972 206.192 306.194 207.577 306.838 209.222L301.783 213.11L307.332 211.889C307.335 213.102 307.032 214.298 306.448 215.377V215.377Z" fill="#6C63FF"/>
<path id="Vector_34" d="M302.458 200.527C300.483 200.606 298.545 199.996 297.013 198.812C295.48 197.629 294.46 195.954 294.144 194.105C293.829 192.256 294.24 190.362 295.301 188.781C296.362 187.201 297.998 186.044 299.899 185.529L299.856 188.682L301.682 185.263H301.704C302.768 185.208 303.832 185.354 304.837 185.691C305.841 186.028 306.765 186.55 307.555 187.227C308.345 187.904 308.987 188.722 309.442 189.634C309.897 190.547 310.156 191.535 310.206 192.543C310.256 193.551 310.095 194.559 309.732 195.507C309.368 196.456 308.811 197.327 308.091 198.071C307.37 198.815 306.502 199.416 305.535 199.84C304.569 200.265 303.523 200.504 302.458 200.544V200.527Z" fill="#6C63FF"/>
<path id="Vector_35" d="M322.061 188.173C320.812 188.228 319.567 188.008 318.423 187.53C317.279 187.052 316.268 186.328 315.47 185.417C314.671 184.506 314.107 183.432 313.821 182.279C313.536 181.126 313.537 179.926 313.824 178.773C314.112 177.621 314.678 176.547 315.478 175.637C316.278 174.727 317.29 174.005 318.435 173.529C319.58 173.053 320.826 172.835 322.074 172.892C323.323 172.949 324.541 173.28 325.632 173.859L324.188 177.562L327.123 174.895C328.298 175.916 329.127 177.244 329.507 178.711C329.887 180.177 329.8 181.718 329.256 183.138C328.713 184.558 327.738 185.794 326.455 186.69C325.171 187.586 323.636 188.102 322.043 188.173H322.061Z" fill="#6C63FF"/>
<path id="Vector_36" opacity="0.1" d="M319.762 165.65C317.895 165.844 316.083 166.395 314.213 166.504C312.343 166.614 310.289 166.19 309.108 164.795C308.469 164.053 308.152 163.116 307.614 162.305C307.103 161.553 306.405 160.931 305.581 160.493C305.061 161.463 304.764 162.527 304.712 163.613C304.66 164.7 304.853 165.785 305.278 166.795C305.704 167.806 306.352 168.719 307.18 169.473C308.008 170.227 308.996 170.806 310.078 171.169C311.161 171.533 312.312 171.674 313.457 171.583C314.602 171.492 315.712 171.17 316.715 170.64C317.718 170.11 318.59 169.383 319.273 168.509C319.956 167.634 320.434 166.631 320.675 165.567C320.368 165.598 320.065 165.619 319.762 165.65Z" fill="black"/>
<path id="Vector_37" opacity="0.1" d="M322.061 188.173C320.67 188.233 319.285 187.952 318.042 187.356C316.799 186.76 315.739 185.87 314.966 184.772C314.193 183.675 313.733 182.406 313.63 181.09C313.527 179.774 313.785 178.455 314.379 177.262C315.022 177.67 315.574 178.194 316.004 178.804C316.578 179.624 316.928 180.575 317.603 181.331C318.859 182.729 321.011 183.187 322.96 183.105C324.91 183.023 326.787 182.497 328.736 182.326C329.007 182.305 329.278 182.288 329.552 182.281C329.15 183.901 328.202 185.353 326.85 186.416C325.498 187.48 323.817 188.096 322.061 188.173Z" fill="black"/>
<path id="Vector_38" opacity="0.1" d="M302.458 200.527C301.081 200.588 299.709 200.313 298.475 199.73C297.241 199.146 296.185 198.273 295.408 197.194C294.631 196.114 294.159 194.864 294.037 193.562C293.915 192.261 294.147 190.952 294.711 189.759C295.377 190.173 295.956 190.701 296.419 191.315C297.047 192.153 297.437 193.117 298.173 193.893C299.534 195.329 301.823 195.835 303.888 195.787C305.888 195.746 307.812 195.281 309.801 195.138C309.312 196.643 308.345 197.968 307.03 198.933C305.716 199.897 304.119 200.454 302.458 200.527V200.527Z" fill="black"/>
<path id="Vector_39" opacity="0.1" d="M306.448 215.377C305.512 217.134 303.897 218.483 301.938 219.141C299.979 219.799 297.828 219.717 295.932 218.912C294.036 218.106 292.54 216.639 291.757 214.816C290.973 212.993 290.962 210.954 291.726 209.123C292.391 209.536 292.989 210.041 293.498 210.621C294.267 211.506 294.773 212.511 295.664 213.335C297.314 214.871 299.978 215.503 302.35 215.561C303.719 215.576 305.087 215.514 306.448 215.377V215.377Z" fill="black"/>
<path id="Vector_40" d="M286.282 226.65C286.282 226.65 292.653 226.466 294.585 225.17C296.516 223.874 304.39 222.328 304.866 224.404C305.343 226.479 314.444 234.737 307.249 234.792C300.054 234.846 290.531 233.732 288.614 232.624C286.697 231.516 286.282 226.65 286.282 226.65Z" fill="#656380"/>
<path id="Vector_41" opacity="0.2" d="M307.365 234.084C300.17 234.139 290.646 233.02 288.729 231.916C287.285 231.071 286.69 228.052 286.495 226.657H286.282C286.282 226.657 286.686 231.526 288.603 232.631C290.52 233.735 300.043 234.853 307.238 234.798C309.314 234.798 310.032 234.084 309.993 233.048C309.704 233.667 308.913 234.056 307.365 234.084Z" fill="black"/>
<path id="Vector_42" d="M116.606 14.6557L110.018 18.6118L114.018 11.7219C112.889 10.8671 111.492 10.393 110.047 10.3747H109.939C109.482 10.3807 109.025 10.3487 108.574 10.2789L106.339 11.6193L107.296 9.9712C105.715 9.44783 104.348 8.4655 103.39 7.16394L99.3935 9.55747L101.921 5.20809C99.5812 2.55127 96.4332 0.920258 92.9639 0.920258C88.8087 0.920258 85.1083 3.26249 82.7184 6.91091C82.0116 8.00178 81.0129 8.89635 79.8236 9.50402C78.6343 10.1117 77.2965 10.4109 75.9458 10.3713H75.722C71.1336 10.3713 67.4188 15.2985 67.4188 21.3781C67.4188 27.4576 71.1372 32.3814 75.722 32.3814C76.729 32.3787 77.7202 32.144 78.6101 31.6976C81.6029 30.2238 85.5307 30.1965 88.6643 31.5129C90.0077 32.0853 91.4636 32.3826 92.9367 32.3856C94.4098 32.3885 95.867 32.097 97.213 31.53C100.325 30.2409 104.206 30.2683 107.181 31.7147C108.063 32.1569 109.045 32.3915 110.043 32.3985C114.632 32.3985 118.347 27.4713 118.347 21.3952C118.374 19.0458 117.776 16.7279 116.606 14.6557V14.6557Z" fill="#F2F2F2"/>
<path id="Vector_43" opacity="0.03" d="M104.184 30.7572C101.787 30.3255 99.3085 30.5803 97.065 31.489C95.7195 32.0554 94.2629 32.3467 92.7905 32.3438C91.3181 32.3408 89.8628 32.0437 88.5199 31.4719C85.3827 30.1554 81.4549 30.1828 78.4621 31.6565C77.5722 32.1029 76.581 32.3376 75.574 32.3404C71.4982 32.3404 68.1083 28.4492 67.4007 23.3202C68.215 22.7584 68.9064 22.0524 69.4368 21.2413C71.8412 17.5963 75.5271 15.2472 79.6823 15.2472C83.8376 15.2472 87.4946 17.5621 89.8845 21.1695C90.5977 22.2594 91.5958 23.1565 92.7822 23.7741C93.9687 24.3917 95.3033 24.7088 96.657 24.6948H96.7509C100 24.6982 102.816 27.1635 104.184 30.7572Z" fill="black"/>
<path id="Vector_44" d="M288.834 22.7116L285.56 24.6845L287.556 21.2652C286.992 20.8334 286.292 20.5927 285.567 20.5814H285.516C285.288 20.5844 285.059 20.5684 284.834 20.5335L283.718 21.2173L284.188 20.3762C283.399 20.1159 282.717 19.6265 282.238 18.9777L280.245 20.1745L281.505 18.0066C280.975 17.3585 280.299 16.8303 279.527 16.4601C278.755 16.0898 277.905 15.887 277.04 15.8661C274.964 15.8661 273.119 17.0355 271.928 18.8546C271.574 19.3964 271.075 19.8399 270.481 20.1402C269.888 20.4404 269.221 20.5867 268.549 20.5643H268.437C266.148 20.5643 264.292 23.0227 264.292 26.0352C264.292 29.0476 266.148 31.5232 268.437 31.5232C268.94 31.5215 269.436 31.4042 269.881 31.1813C270.66 30.8228 271.512 30.6289 272.377 30.613C273.243 30.597 274.102 30.7594 274.895 31.0889C275.566 31.3718 276.293 31.518 277.027 31.518C277.762 31.518 278.488 31.3718 279.159 31.0889C279.946 30.766 280.797 30.6071 281.655 30.6231C282.513 30.639 283.357 30.8294 284.13 31.1813C284.575 31.4043 285.07 31.5217 285.574 31.5232C287.863 31.5232 289.718 29.0681 289.718 26.0352C289.722 24.8747 289.418 23.7319 288.834 22.7116V22.7116Z" fill="#F2F2F2"/>
<path id="Vector_45" opacity="0.03" d="M282.643 30.7436C281.448 30.5298 280.212 30.6571 279.094 31.1094C278.423 31.3924 277.697 31.5386 276.962 31.5386C276.228 31.5386 275.501 31.3924 274.83 31.1094C274.037 30.7799 273.177 30.6174 272.311 30.6334C271.444 30.6493 270.592 30.8433 269.812 31.2018C269.368 31.4256 268.872 31.543 268.368 31.5437C266.332 31.5437 264.643 29.6049 264.289 27.0473C264.694 26.7695 265.039 26.4214 265.307 26.0215C266.498 24.2024 268.347 23.0364 270.419 23.0364C272.491 23.0364 274.314 24.1887 275.505 25.9873C275.861 26.5314 276.359 26.9791 276.951 27.2871C277.543 27.595 278.209 27.7527 278.885 27.7448H278.939C280.56 27.7209 281.949 28.9519 282.643 30.7436Z" fill="black"/>
<path id="Vector_46" d="M73.769 73.8099L79.0614 76.9831L75.8556 71.4609C76.7646 70.7755 77.8888 70.3965 79.0506 70.3838H79.1336C79.4962 70.3889 79.8586 70.3638 80.2166 70.3086L82.0036 71.3822L81.2274 70.0624C82.4934 69.6407 83.5881 68.8539 84.3574 67.8125L87.5596 69.7341L85.5596 66.2498C87.4332 64.123 89.9567 62.8305 92.7329 62.8305C96.065 62.8305 99.0289 64.7043 100.946 67.6176C101.511 68.4905 102.309 69.2067 103.26 69.6937C104.211 70.1806 105.281 70.421 106.361 70.3906H106.542C110.217 70.3906 113.195 74.3365 113.195 79.2056C113.195 84.0747 110.217 88.0241 106.542 88.0241C105.732 88.0211 104.936 87.8322 104.22 87.4736C102.969 86.8978 101.601 86.5865 100.21 86.5611C98.8195 86.5357 97.4397 86.7969 96.1661 87.3265C95.087 87.7833 93.9184 88.0195 92.7365 88.0195C91.5545 88.0195 90.3859 87.7833 89.3069 87.3265C88.0424 86.8077 86.675 86.5524 85.2972 86.5777C83.9195 86.6031 82.5635 86.9086 81.3213 87.4736C80.6131 87.8227 79.8272 88.0067 79.0289 88.0104C75.3502 88.0104 72.3719 84.0645 72.3719 79.192C72.3545 77.3155 72.8349 75.4649 73.769 73.8099V73.8099Z" fill="#F2F2F2"/>
<path id="Vector_47" opacity="0.03" d="M83.7148 86.7111C85.6357 86.3682 87.6208 86.5729 89.4188 87.2992C90.4978 87.756 91.6664 87.9921 92.8484 87.9921C94.0303 87.9921 95.1989 87.756 96.278 87.2992C97.5522 86.7695 98.9326 86.5083 100.324 86.5337C101.715 86.5591 103.084 86.8704 104.336 87.4462C105.05 87.8048 105.845 87.9938 106.653 87.9967C109.921 87.9967 112.635 84.8817 113.202 80.7717C112.55 80.3198 111.996 79.7533 111.57 79.1031C109.653 76.183 106.69 74.316 103.357 74.316C100.025 74.316 97.1011 76.1693 95.1841 79.062C94.6137 79.9335 93.8157 80.651 92.8671 81.1451C91.9185 81.6393 90.8515 81.8934 89.7689 81.883H89.6859C87.065 81.859 84.8123 83.8354 83.7148 86.7111Z" fill="black"/>
</g>
<g id="ReactJsWomen">
<path id="Vector_48" d="M201.899 6.97587C201.899 8.09849 201.547 9.1959 200.889 10.1293C200.23 11.0628 199.295 11.7903 198.2 12.2199C197.104 12.6495 195.9 12.7619 194.737 12.5429C193.575 12.3239 192.507 11.7833 191.669 10.9895C190.831 10.1956 190.26 9.18427 190.029 8.08322C189.797 6.98217 189.916 5.8409 190.37 4.80373C190.823 3.76656 191.591 2.88008 192.577 2.25639C193.562 1.63269 194.721 1.29979 195.906 1.29979C196.694 1.29617 197.475 1.44052 198.204 1.72448C198.933 2.00845 199.595 2.42641 200.152 2.9542C200.709 3.482 201.151 4.10916 201.451 4.79945C201.75 5.48974 201.903 6.22946 201.899 6.97587V6.97587Z" fill="#3F3D56"/>
<path id="Vector_49" d="M191.119 8.40896C190.644 7.5959 190.387 6.68491 190.37 5.7558C190.353 4.82668 190.577 3.9078 191.022 3.07964C191.467 2.25149 192.119 1.53933 192.922 1.00555C193.726 0.471774 194.655 0.13267 195.628 0.017943C194.803 -0.00944287 193.98 0.125154 193.212 0.413281C192.444 0.701409 191.747 1.13684 191.165 1.69224C190.583 2.24764 190.128 2.911 189.83 3.64067C189.532 4.37034 189.396 5.15056 189.431 5.93233C189.466 6.7141 189.672 7.48054 190.035 8.18351C190.397 8.88648 190.91 9.5108 191.54 10.0173C192.169 10.5237 192.903 10.9014 193.694 11.1266C194.485 11.3517 195.317 11.4195 196.137 11.3256C195.106 11.2896 194.103 11.0022 193.224 10.4912C192.345 9.98025 191.62 9.26304 191.119 8.40896V8.40896Z" fill="#3F3D56"/>
<path id="Vector_50" d="M204.469 14.8813H188.415V38.6012H204.469V14.8813Z" fill="#3F3D56"/>
<path id="Vector_51" opacity="0.1" d="M204.469 14.8813H188.415V38.6012H204.469V14.8813Z" fill="black"/>
<path id="Vector_52" d="M163.054 100.939C163.054 100.939 161.339 105.401 157.278 106.01C153.217 106.618 150.856 107.63 150.856 107.63L160.487 113.508L165.625 112.9C165.625 112.9 166.267 106.615 168.408 105.196C170.549 103.777 163.054 100.939 163.054 100.939Z" fill="#A0616A"/>
<path id="Vector_53" d="M232.614 100.939C232.614 100.939 234.329 105.401 238.39 106.01C242.451 106.618 244.812 107.63 244.812 107.63L235.181 113.508L230.043 112.9C230.043 112.9 229.401 106.615 227.26 105.196C225.119 103.777 232.614 100.939 232.614 100.939Z" fill="#A0616A"/>
<path id="Vector_54" d="M185.74 61.6098C185.74 61.6098 183.173 62.8271 182.318 65.2616C182.318 65.2616 177.625 66.6807 175.04 70.5308C175.04 70.5308 171.827 73.7758 171.401 75.3965C170.975 77.0173 166.065 86.7487 166.065 86.7487C166.065 86.7487 161.141 101.954 158.574 103.575C158.574 103.575 166.708 101.954 168.206 109.658C168.206 109.658 170.13 109.658 172.271 102.563C174.412 95.4679 179.549 86.7487 179.549 86.7487C179.549 86.7487 181.26 80.6691 182.758 79.6536C184.256 78.638 186.61 73.9775 188.751 75.2084C190.892 76.4394 205.018 75.0033 205.018 75.0033C205.018 75.0033 213.357 78.6415 213.567 81.0726C213.776 83.5037 215.278 83.7089 215.491 85.7365C215.704 87.7642 223.625 103.777 223.625 103.777C223.625 103.777 225.123 108.222 225.552 109.248C225.552 109.248 230.245 98.5043 236.469 104.587C236.469 104.587 236.253 100.532 234.329 98.0906C232.404 95.6492 224.054 76.6035 224.054 76.6035C224.054 76.6035 223.199 73.7655 222.343 72.9551C221.487 72.1447 214.848 65.6549 212.495 65.6549C212.495 65.6549 211.213 62.6151 209.715 62.2082L185.74 61.6098Z" fill="#3F3D56"/>
<path id="Vector_55" d="M166.477 111.481C164.805 112.116 162.988 112.331 161.202 112.104C159.417 111.877 157.724 111.216 156.289 110.185C154.894 109.17 153.366 108.331 151.744 107.689C149.473 106.82 146.758 106.177 145.931 107.63C144.433 110.267 164.123 116.753 164.123 116.753C164.123 116.753 166.693 115.334 166.477 111.481Z" fill="#3F3D56"/>
<path id="Vector_56" d="M229.191 111.481C230.863 112.116 232.68 112.331 234.465 112.104C236.251 111.877 237.944 111.216 239.379 110.185C240.774 109.17 242.302 108.331 243.924 107.689C246.195 106.82 248.91 106.177 249.736 107.63C251.235 110.267 231.545 116.753 231.545 116.753C231.545 116.753 228.975 115.334 229.191 111.481Z" fill="#3F3D56"/>
<path id="Vector_57" d="M192.736 28.268C192.657 28.9724 192.412 29.7349 191.776 30.1076C191.256 30.4153 190.599 30.3914 190 30.5076C189.371 30.6569 188.787 30.9441 188.297 31.3463C187.807 31.7484 187.423 32.2541 187.177 32.8225C186.696 33.9698 186.602 35.2298 186.906 36.4299C187.048 37.0177 187.231 37.5957 187.455 38.1601C188.083 39.8424 188.841 41.511 190.014 42.9095C191.016 44.0213 192.141 45.0268 193.372 45.9083C194.134 46.4964 194.921 47.0948 195.859 47.3718C196.496 47.5309 197.151 47.6136 197.809 47.6179C198.621 47.6521 199.487 47.6761 200.191 47.2931C201.274 46.7016 201.596 45.3954 202.184 44.3457C202.682 43.4566 203.426 42.701 203.892 41.7948C204.223 41.0807 204.465 40.3325 204.614 39.5654L205.614 35.3597C205.975 33.8312 206.307 32.1079 205.401 30.7983C205.335 30.6917 205.243 30.6015 205.134 30.535C204.959 30.4699 204.769 30.4521 204.585 30.4837C203.434 30.5546 202.286 30.3062 201.282 29.7691C201.124 29.692 200.983 29.5876 200.866 29.4613C200.722 29.2423 200.636 28.9937 200.614 28.7364C200.516 28.2154 200.361 27.7054 200.152 27.2148C200.093 27.038 199.984 26.8797 199.838 26.7567C199.684 26.6654 199.509 26.6103 199.329 26.5959C197.783 26.3584 196.225 26.2043 194.661 26.1343C194.148 26.1104 193.375 25.9155 193.022 26.3463C192.668 26.7772 192.78 27.7551 192.736 28.268Z" fill="#A0616A"/>
<path id="Vector_58" opacity="0.1" d="M192.736 28.268C192.657 28.9724 192.412 29.7349 191.776 30.1076C191.256 30.4153 190.599 30.3914 190 30.5076C189.371 30.6569 188.787 30.9441 188.297 31.3463C187.807 31.7484 187.423 32.2541 187.177 32.8225C186.696 33.9698 186.602 35.2298 186.906 36.4299C187.048 37.0177 187.231 37.5957 187.455 38.1601C188.083 39.8424 188.841 41.511 190.014 42.9095C191.016 44.0213 192.141 45.0268 193.372 45.9083C194.134 46.4964 194.921 47.0948 195.859 47.3718C196.496 47.5309 197.151 47.6136 197.809 47.6179C198.621 47.6521 199.487 47.6761 200.191 47.2931C201.274 46.7016 201.596 45.3954 202.184 44.3457C202.682 43.4566 203.426 42.701 203.892 41.7948C204.223 41.0807 204.465 40.3325 204.614 39.5654L205.614 35.3597C205.975 33.8312 206.307 32.1079 205.401 30.7983C205.335 30.6917 205.243 30.6015 205.134 30.535C204.959 30.4699 204.769 30.4521 204.585 30.4837C203.434 30.5546 202.286 30.3062 201.282 29.7691C201.124 29.692 200.983 29.5876 200.866 29.4613C200.722 29.2423 200.636 28.9937 200.614 28.7364C200.516 28.2154 200.361 27.7054 200.152 27.2148C200.093 27.038 199.984 26.8797 199.838 26.7567C199.684 26.6654 199.509 26.6103 199.329 26.5959C197.783 26.3584 196.225 26.2043 194.661 26.1343C194.148 26.1104 193.375 25.9155 193.022 26.3463C192.668 26.7772 192.78 27.7551 192.736 28.268Z" fill="black"/>
<path id="Vector_59" d="M189.838 30.6854C189.002 30.449 188.136 30.3202 187.264 30.3025C185.199 30.2546 182.989 30.9282 181.798 32.525C180.986 33.6777 180.689 35.0876 180.971 36.447C181.259 37.7937 181.905 39.0484 182.848 40.092C183.394 40.6406 183.877 41.241 184.292 41.8837C184.863 42.9095 184.881 44.1371 185.036 45.3031C185.397 48.0795 186.646 50.6885 187.141 53.4479C187.635 56.2073 187.209 59.4043 184.91 61.1585C184.523 61.4525 184.054 61.7637 184.022 62.2321C183.971 62.981 185 63.299 185.791 63.3708C188.155 63.5828 190.581 63.7913 192.877 63.2135C193.827 62.9741 194.744 62.6014 195.711 62.4304C198.166 61.9962 200.635 62.8886 203.094 63.316C204.873 63.5942 206.673 63.7326 208.477 63.7298C208.896 63.7653 209.319 63.7128 209.715 63.5759C209.911 63.5031 210.077 63.373 210.19 63.2046C210.303 63.0362 210.357 62.8381 210.343 62.639C210.263 62.3813 210.116 62.1463 209.917 61.9552C208.675 60.502 208.296 58.57 207.957 56.727L206.82 50.5346C206.209 47.2247 205.643 43.6276 207.296 40.6562C208.484 38.5191 210.675 37.0146 211.928 34.9117C212.364 34.2761 212.562 33.5194 212.487 32.7644C212.3 31.7078 211.292 30.9522 210.26 30.5111C208.273 29.667 206.018 29.5885 203.971 30.2922C204.007 31.7728 203.61 33.2705 203.354 34.7373L202.917 37.1309C202.695 38.5414 202.368 39.9354 201.939 41.3024C201.783 41.8493 201.517 42.3625 201.155 42.8138C200.77 43.2198 200.299 43.5448 199.773 43.7678C198.633 44.2955 197.38 44.567 196.112 44.5611C195.563 44.5691 195.016 44.4893 194.495 44.3251C193.655 43.9764 192.897 43.4718 192.267 42.8411C192.046 42.6623 191.849 42.4591 191.679 42.2359C191.499 41.9518 191.364 41.6442 191.278 41.323C190.986 40.4866 190.755 39.632 190.588 38.7653C190.48 38.102 190.444 37.4284 190.394 36.7582C190.253 34.7784 190.253 32.59 189.838 30.6854Z" fill="#6C63FF"/>
<path id="Vector_60" d="M187.668 69.9222C187.668 69.9222 186.812 80.6691 192.162 82.4916C197.513 84.3141 192.805 73.5706 192.805 73.5706L191.09 70.3291L187.668 69.9222Z" fill="#A0616A"/>
<path id="Vector_61" d="M205.859 69.9222C205.859 69.9222 206.715 80.6691 201.365 82.4916C196.014 84.3141 200.722 73.5706 200.722 73.5706L202.437 70.3291L205.859 69.9222Z" fill="#A0616A"/>
<path id="Vector_62" opacity="0.1" d="M182.957 34.0535L181.245 36.6898C181.245 36.6898 182.744 45.8125 182.957 47.4333C183.141 48.6028 183.429 49.7557 183.816 50.88C183.816 50.88 184.029 55.7457 184.029 57.5716C184.029 59.3975 185.112 62.4373 185.112 62.4373C185.263 64.1607 185.626 65.8614 186.195 67.5047C187.051 69.7341 187.906 72.3704 187.906 72.3704C187.906 72.3704 188.989 69.5324 193.256 73.7894C193.734 73.3301 194.002 72.7111 194.002 72.0661C194.002 71.4212 193.734 70.8021 193.256 70.3428C193.256 70.3428 191.975 64.8719 191.975 62.0304C191.975 59.1889 189.617 45.6176 189.617 45.6176C189.617 45.6176 188.087 30.1897 182.957 34.0535Z" fill="black"/>
<path id="Vector_63" d="M182.531 33.8381L180.819 36.4744C180.819 36.4744 182.318 45.5971 182.531 47.2179C182.716 48.3876 183.005 49.5405 183.393 50.6646C183.393 50.6646 183.606 55.5303 183.606 57.3528C183.606 59.1753 184.69 62.2185 184.69 62.2185C184.84 63.942 185.203 65.6428 185.773 67.2859C186.628 69.5187 187.487 72.1516 187.487 72.1516C187.487 72.1516 188.57 69.3136 192.838 73.5706C193.314 73.1114 193.582 72.4931 193.582 71.849C193.582 71.2049 193.314 70.5865 192.838 70.1273C192.838 70.1273 191.552 64.6564 191.552 61.815C191.552 58.9735 189.199 45.4022 189.199 45.4022C189.199 45.4022 187.668 29.9845 182.531 33.8381Z" fill="#6C63FF"/>
<path id="Vector_64" opacity="0.1" d="M210.783 32.4191L211.866 33.6261C211.866 33.6261 213.126 40.5263 210.343 49.2455L209.487 57.151C209.487 57.151 207.989 63.8426 207.776 65.4634C207.563 67.0842 207.563 67.2859 207.134 67.8945C207.003 68.0369 206.932 68.219 206.932 68.4074C206.932 68.5959 207.003 68.778 207.134 68.9203L205.848 73.3655C205.848 73.3655 203.924 71.1361 200.072 73.9741C200.072 73.9741 198.989 72.3533 199.856 70.9343C200.722 69.5153 200.711 68.9067 200.498 68.4998C200.285 68.0929 201.354 66.0686 201.354 65.6617C201.354 65.2548 202.863 55.9372 202.863 55.9372C202.863 55.9372 203.505 46.8144 204.148 43.7746C204.542 41.9043 204.534 37.7361 204.466 34.8023C204.397 31.7454 208.303 30.0905 210.603 32.2378C210.657 32.2925 210.722 32.3438 210.783 32.4191Z" fill="black"/>
<path id="Vector_65" d="M211.426 32.0019L212.509 33.2089C212.509 33.2089 213.769 40.1125 210.986 48.8284L210.13 56.7339C210.13 56.7339 208.632 63.4255 208.419 65.0462C208.206 66.667 208.202 66.8722 207.776 67.4808C207.645 67.6229 207.573 67.8051 207.573 67.9937C207.573 68.1823 207.645 68.3645 207.776 68.5066L206.498 72.9654C206.498 72.9654 204.574 70.7326 200.722 73.5706C200.722 73.5706 199.639 71.9499 200.509 70.5308C201.379 69.1118 201.365 68.5032 201.152 68.0997C200.939 67.6962 202.007 65.6651 202.007 65.2617C202.007 64.8582 203.505 55.5303 203.505 55.5303C203.505 55.5303 204.148 46.4075 204.791 43.3643C205.433 40.3211 205.004 31.2018 205.004 31.2018C205.004 31.2018 208.43 28.9724 211.426 32.0019Z" fill="#6C63FF"/>
<path id="Vector_66" d="M197.083 29.1775C201.812 29.1775 205.646 25.5463 205.646 21.0669C205.646 16.5875 201.812 12.9563 197.083 12.9563C192.354 12.9563 188.52 16.5875 188.52 21.0669C188.52 25.5463 192.354 29.1775 197.083 29.1775Z" fill="#A0616A"/>
<path id="Vector_67" opacity="0.1" d="M201.549 8.89069C201.137 9.97898 200.384 10.9223 199.391 11.5944C198.398 12.2665 197.212 12.6354 195.992 12.6518C194.771 12.6682 193.575 12.3312 192.562 11.6859C191.549 11.0407 190.769 10.118 190.325 9.04114C193.668 7.76573 197.083 8.90095 197.083 8.90095C198.791 8.33334 200.271 8.38463 201.549 8.89069Z" fill="black"/>
<path id="Vector_68" d="M197.083 9.30783C197.083 9.30783 180.603 3.83691 184.672 30.3914C184.672 30.3914 188.311 32.6208 191.09 31.2018C191.09 31.2018 189.166 12.7545 196.657 13.5649C204.148 14.3753 202.863 30.7983 202.863 30.7983C202.863 30.7983 207.144 32.0121 208.43 29.7725C209.715 27.5328 208 5.67309 197.083 9.30783Z" fill="#3F3D56"/>
<path id="Vector_69" opacity="0.1" d="M196.657 12.3476C191.516 11.7937 190.809 20.3044 190.881 25.7001C190.942 20.3352 191.895 13.0486 196.657 13.5649C202.004 14.1428 202.881 22.6808 202.942 27.5157C203.004 23.0775 202.491 12.9802 196.657 12.3476Z" fill="black"/>
<path id="Vector_70" opacity="0.1" d="M184.671 29.1741C184.299 26.8497 184.085 24.5048 184.032 22.1542C184.015 24.9117 184.228 27.666 184.671 30.3914C184.671 30.3914 188.31 32.6208 191.09 31.2018C191.09 31.2018 191.047 30.7641 190.996 30.0289C188.227 31.3522 184.671 29.1741 184.671 29.1741Z" fill="black"/>
<path id="Vector_71" opacity="0.1" d="M208.43 28.5826C207.231 30.6615 203.437 29.7486 202.924 29.6084C202.899 30.3606 202.863 30.812 202.863 30.812C202.863 30.812 207.144 32.0258 208.43 29.7862C208.693 29.328 208.83 28.0321 208.791 26.2985C208.754 27.4097 208.628 28.2406 208.43 28.5826Z" fill="black"/>
</g>
</g>
</svg>
