<svg width="291" height="226" viewBox="0 0 291 226" fill="none" xmlns="http://www.w3.org/2000/svg">
<path d="M299.572 226H132.116C132.06 226 132.005 225.99 131.953 225.97C131.901 225.951 131.854 225.922 131.814 225.885C131.774 225.848 131.743 225.805 131.721 225.757C131.7 225.709 131.689 225.658 131.689 225.606C131.689 225.554 131.7 225.503 131.721 225.455C131.743 225.407 131.774 225.363 131.814 225.327C131.854 225.29 131.901 225.261 131.953 225.241C132.005 225.221 132.06 225.211 132.116 225.212H299.572C299.628 225.211 299.684 225.221 299.736 225.241C299.788 225.261 299.835 225.29 299.875 225.327C299.914 225.363 299.946 225.407 299.967 225.455C299.989 225.503 300 225.554 300 225.606C300 225.658 299.989 225.709 299.967 225.757C299.946 225.805 299.914 225.848 299.875 225.885C299.835 225.922 299.788 225.951 299.736 225.97C299.684 225.99 299.628 226 299.572 226V226Z" fill="#CACACA"/>
<path d="M181.01 209.111C185.353 211.801 190.301 225.395 190.301 225.395C190.301 225.395 174.811 226.328 170.469 223.64C169.436 223.001 168.55 222.18 167.86 221.224C167.171 220.268 166.692 219.196 166.451 218.069C166.21 216.942 166.211 215.782 166.456 214.656C166.7 213.529 167.182 212.459 167.874 211.504C168.566 210.55 169.455 209.731 170.49 209.095C171.525 208.458 172.686 208.016 173.905 207.794C175.125 207.571 176.38 207.573 177.599 207.8C178.818 208.026 179.977 208.471 181.01 209.111V209.111Z" fill="#99EA68"/>
<path d="M204.237 203.688C203.96 210.369 190.215 225.624 190.215 225.624C190.215 225.624 177.78 209.437 178.056 202.759C178.189 199.552 179.696 196.524 182.246 194.343C184.795 192.162 188.177 191.006 191.649 191.129C195.121 191.252 198.397 192.645 200.758 195C203.119 197.355 204.37 200.48 204.237 203.688V203.688Z" fill="#99EA68"/>
<path d="M190.477 225.292L190.235 225.471C181.383 215.211 168.026 211.667 167.892 211.633L167.975 211.357C168.11 211.391 181.561 214.958 190.477 225.292Z" fill="white"/>
<path d="M190.473 225.742L190.069 225.607C196.728 208.522 191.551 191.407 191.498 191.236L191.911 191.127C191.965 191.299 197.181 208.533 190.473 225.742Z" fill="white"/>
<path d="M154.882 165.676H37.0784C34.9797 165.674 32.9676 164.903 31.4835 163.532C29.9995 162.161 29.1647 160.301 29.1624 158.362V33.9763C29.1647 32.0372 29.9995 30.1782 31.4835 28.807C32.9676 27.4358 34.9797 26.6646 37.0784 26.6624H154.882C156.981 26.6645 158.993 27.4358 160.477 28.807C161.961 30.1782 162.796 32.0372 162.798 33.9763V158.362C162.796 160.301 161.961 162.161 160.477 163.532C158.993 164.903 156.981 165.674 154.882 165.676V165.676Z" fill="#E6E6E6"/>
<path d="M149.377 159.58H42.5831C40.7196 159.579 38.9331 158.894 37.6154 157.676C36.2978 156.459 35.5566 154.808 35.5545 153.086V39.2522C35.5566 37.5304 36.2978 35.8798 37.6154 34.6624C38.9331 33.4449 40.7196 32.7601 42.5831 32.7581H149.377C151.241 32.7601 153.027 33.4449 154.345 34.6624C155.663 35.8798 156.404 37.5304 156.406 39.2522V153.086C156.404 154.808 155.663 156.459 154.345 157.676C153.027 158.894 151.241 159.579 149.377 159.58V159.58Z" fill="white"/>
<path d="M145.129 48.9599H91.2542C91.0233 48.9603 90.7945 48.9185 90.581 48.837C90.3676 48.7556 90.1736 48.6361 90.0102 48.4853C89.8468 48.3345 89.7171 48.1554 89.6286 47.9583C89.5402 47.7612 89.4947 47.5499 89.4947 47.3366C89.4947 47.1232 89.5402 46.9119 89.6286 46.7148C89.7171 46.5177 89.8468 46.3386 90.0102 46.1878C90.1736 46.0371 90.3676 45.9175 90.581 45.8361C90.7945 45.7546 91.0233 45.7129 91.2542 45.7132H145.129C145.36 45.7129 145.588 45.7546 145.802 45.8361C146.015 45.9175 146.209 46.0371 146.373 46.1878C146.536 46.3386 146.666 46.5177 146.754 46.7148C146.843 46.9119 146.888 47.1232 146.888 47.3366C146.888 47.5499 146.843 47.7612 146.754 47.9583C146.666 48.1554 146.536 48.3345 146.373 48.4853C146.209 48.6361 146.015 48.7556 145.802 48.837C145.588 48.9185 145.36 48.9603 145.129 48.9599V48.9599Z" fill="#E4E4E4"/>
<path d="M145.129 55.3747H91.2542C90.7882 55.3747 90.3412 55.2037 90.0117 54.8992C89.6822 54.5947 89.4971 54.1818 89.4971 53.7512C89.4971 53.3207 89.6822 52.9077 90.0117 52.6033C90.3412 52.2988 90.7882 52.1278 91.2542 52.1278H145.129C145.595 52.1278 146.042 52.2988 146.371 52.6033C146.701 52.9077 146.886 53.3207 146.886 53.7512C146.886 54.1818 146.701 54.5947 146.371 54.8992C146.042 55.2037 145.595 55.3747 145.129 55.3747Z" fill="#E4E4E4"/>
<path d="M114.607 61.7895H91.2541C90.7881 61.7895 90.3412 61.6185 90.0117 61.314C89.6822 61.0096 89.497 60.5966 89.497 60.1661C89.497 59.7355 89.6822 59.3226 90.0117 59.0181C90.3412 58.7136 90.7881 58.5426 91.2541 58.5426H114.607C115.073 58.5426 115.52 58.7136 115.85 59.0181C116.179 59.3226 116.365 59.7355 116.365 60.1661C116.365 60.5966 116.179 61.0096 115.85 61.314C115.52 61.6185 115.073 61.7895 114.607 61.7895Z" fill="#E4E4E4"/>
<path d="M138.632 87.698H53.5809C53.35 87.6983 53.1212 87.6565 52.9078 87.5751C52.6943 87.4936 52.5003 87.3741 52.3369 87.2233C52.1735 87.0726 52.0438 86.8935 51.9554 86.6964C51.8669 86.4993 51.8214 86.288 51.8214 86.0746C51.8214 85.8612 51.8669 85.6499 51.9554 85.4528C52.0438 85.2557 52.1735 85.0767 52.3369 84.9259C52.5003 84.7751 52.6943 84.6556 52.9078 84.5741C53.1212 84.4927 53.35 84.4509 53.5809 84.4512H138.632C138.863 84.4509 139.092 84.4927 139.305 84.5741C139.519 84.6556 139.713 84.7751 139.876 84.9259C140.039 85.0767 140.169 85.2557 140.258 85.4528C140.346 85.6499 140.392 85.8612 140.392 86.0746C140.392 86.288 140.346 86.4993 140.258 86.6964C140.169 86.8935 140.039 87.0726 139.876 87.2233C139.713 87.3741 139.519 87.4936 139.305 87.5751C139.092 87.6565 138.863 87.6983 138.632 87.698Z" fill="#E4E4E4"/>
<path d="M138.632 94.1128H53.5809C53.1149 94.1128 52.668 93.9417 52.3384 93.6373C52.0089 93.3328 51.8238 92.9199 51.8238 92.4893C51.8238 92.0588 52.0089 91.6458 52.3384 91.3414C52.668 91.0369 53.1149 90.8659 53.5809 90.8659H138.632C139.098 90.8659 139.545 91.0369 139.874 91.3414C140.204 91.6458 140.389 92.0588 140.389 92.4893C140.389 92.9199 140.204 93.3328 139.874 93.6373C139.545 93.9417 139.098 94.1128 138.632 94.1128V94.1128Z" fill="#E4E4E4"/>
<path d="M138.632 108.674H53.5809C53.1149 108.674 52.668 108.503 52.3385 108.199C52.009 107.894 51.8239 107.481 51.8239 107.051C51.8239 106.62 52.009 106.207 52.3385 105.903C52.668 105.598 53.1149 105.427 53.5809 105.427H138.632C139.098 105.427 139.545 105.598 139.874 105.903C140.204 106.207 140.389 106.62 140.389 107.051C140.389 107.481 140.204 107.894 139.874 108.199C139.545 108.503 139.098 108.674 138.632 108.674Z" fill="#E4E4E4"/>
<path d="M138.632 115.089H53.5809C53.1149 115.089 52.668 114.918 52.3384 114.613C52.0089 114.309 51.8238 113.896 51.8238 113.465C51.8238 113.035 52.0089 112.622 52.3384 112.317C52.668 112.013 53.1149 111.842 53.5809 111.842H138.632C139.098 111.842 139.545 112.013 139.874 112.317C140.204 112.622 140.389 113.035 140.389 113.465C140.389 113.896 140.204 114.309 139.874 114.613C139.545 114.918 139.098 115.089 138.632 115.089V115.089Z" fill="#E4E4E4"/>
<path d="M138.632 129.65H53.5809C53.1149 129.65 52.668 129.479 52.3385 129.175C52.009 128.87 51.8239 128.457 51.8239 128.027C51.8239 127.596 52.009 127.183 52.3385 126.879C52.668 126.574 53.1149 126.403 53.5809 126.403H138.632C139.098 126.403 139.545 126.574 139.874 126.879C140.204 127.183 140.389 127.596 140.389 128.027C140.389 128.457 140.204 128.87 139.874 129.175C139.545 129.479 139.098 129.65 138.632 129.65Z" fill="#E4E4E4"/>
<path d="M138.632 136.065H53.5809C53.1149 136.065 52.668 135.894 52.3384 135.59C52.0089 135.285 51.8238 134.872 51.8238 134.442C51.8238 134.011 52.0089 133.598 52.3384 133.294C52.668 132.989 53.1149 132.818 53.5809 132.818H138.632C139.098 132.818 139.545 132.989 139.874 133.294C140.204 133.598 140.389 134.011 140.389 134.442C140.389 134.872 140.204 135.285 139.874 135.59C139.545 135.894 139.098 136.065 138.632 136.065Z" fill="#E4E4E4"/>
<path d="M138.617 153.834H115.264C114.798 153.834 114.351 153.663 114.021 153.358C113.692 153.054 113.507 152.641 113.507 152.21C113.507 151.78 113.692 151.367 114.021 151.062C114.351 150.758 114.798 150.587 115.264 150.587H138.617C139.083 150.587 139.53 150.758 139.86 151.062C140.189 151.367 140.374 151.78 140.374 152.21C140.374 152.641 140.189 153.054 139.86 153.358C139.53 153.663 139.083 153.834 138.617 153.834Z" fill="#6C63FF"/>
<path d="M76.3407 53.9414C76.3456 57.4278 75.0681 60.8123 72.7179 63.5398C71.9577 64.4276 71.0922 65.2339 70.1377 65.9436C67.5327 67.896 64.35 69.0755 61.0069 69.3274C60.5517 69.3638 60.093 69.3803 59.6307 69.3803C58.7146 69.3805 57.8001 69.3108 56.8965 69.1718C56.5777 69.1254 56.2659 69.0691 55.9541 69.0029C55.4114 68.8913 54.8755 68.7532 54.3486 68.589C52.6401 68.0636 51.0353 67.2854 49.5968 66.2846C49.2134 66.0197 48.8444 65.7383 48.4861 65.4403C48.0478 65.0811 47.6326 64.6986 47.2425 64.2947C47.1386 64.1888 47.0346 64.0795 46.9344 63.9703C45.1858 62.0794 43.9577 59.8262 43.3546 57.4024C42.7515 54.9786 42.7912 52.4561 43.4704 50.0495C44.1495 47.643 45.448 45.4237 47.2554 43.5807C49.0627 41.7376 51.3253 40.3254 53.8505 39.4642C56.3757 38.6029 59.0888 38.3183 61.7587 38.6344C64.4286 38.9505 66.9763 39.8581 69.1849 41.2798C71.3935 42.7014 73.1975 44.5952 74.4435 46.7998C75.6894 49.0043 76.3403 51.4544 76.3407 53.9414L76.3407 53.9414Z" fill="#E4E4E4"/>
<path d="M59.0491 59.2104C62.831 59.2104 65.8968 56.3777 65.8968 52.8835C65.8968 49.3893 62.831 46.5566 59.0491 46.5566C55.2672 46.5566 52.2014 49.3893 52.2014 52.8835C52.2014 56.3777 55.2672 59.2104 59.0491 59.2104Z" fill="#9E616A"/>
<path d="M66.6725 49.7994C66.7035 49.2341 66.5309 48.6752 66.1815 48.2101L65.9342 47.8857C65.0419 46.2964 63.5691 44.8661 62.4905 43.8198C61.6806 43.0351 60.8708 42.6577 60.093 42.6941C59.5271 42.7314 59.0001 42.9743 58.6274 43.3695C57.6033 43.3117 56.5832 43.5312 55.692 44.0011C54.8009 44.471 54.0775 45.1709 53.6105 46.015C50.3316 47.6141 51.3099 52.3356 51.3206 52.3852L52.1127 53.6136L52.2023 53.458C52.2023 53.4547 52.213 53.4414 52.2273 53.4149C52.3815 53.16 53.2199 51.7429 53.7862 50.8457C53.9928 50.5396 54.2677 50.2777 54.5925 50.0775C55.1228 49.7427 55.7323 49.5304 56.3699 49.4584L58.1114 49.2498L57.4521 50.1636H62.1966L64.0205 49.9649C64.2034 50.6569 65.6511 53.3421 65.8266 53.6666L65.841 53.6931L65.9377 53.8752L66.4789 52.5011C66.7949 51.6311 66.8616 50.7003 66.6725 49.7994V49.7994Z" fill="#2F2E41"/>
<path d="M49.6471 66.3177C49.9409 65.9601 51.4639 64.2914 54.9686 63.4074L56.8249 61.497L64.2678 60.401L68.0556 62.3346L72.7178 63.5398C71.9576 64.4276 71.0922 65.2339 70.1376 65.9436C67.5327 67.896 64.35 69.0755 61.0068 69.3274C60.5517 69.3638 60.093 69.3803 59.6308 69.3803C58.7147 69.3805 57.8002 69.3108 56.8965 69.1717C56.5776 69.1254 56.2659 69.0691 55.9541 69.0029C55.4114 68.8913 54.8755 68.7532 54.3487 68.589C52.6595 68.0705 51.0719 67.3035 49.6471 66.3177C49.6292 66.3078 49.6148 66.2945 49.5969 66.2846L49.6471 66.3177Z" fill="#6C63FF"/>
<path d="M190.897 7.74386H1.06332C0.781405 7.74357 0.511125 7.63997 0.311781 7.45579C0.112436 7.27161 0.000307326 7.02189 0 6.76142V0.982439C0.000307326 0.721967 0.112436 0.472245 0.311781 0.288063C0.511125 0.103882 0.781405 0.00028395 1.06332 0H190.897C191.179 0.00028395 191.449 0.103882 191.649 0.288063C191.848 0.472245 191.96 0.721967 191.96 0.982439V6.76142C191.96 7.02189 191.848 7.27161 191.649 7.45579C191.449 7.63997 191.179 7.74357 190.897 7.74386Z" fill="#6C63FF"/>
<path d="M6.17087 4.98487C7.00462 4.98487 7.68052 4.36039 7.68052 3.59006C7.68052 2.81972 7.00462 2.19524 6.17087 2.19524C5.33712 2.19524 4.66122 2.81972 4.66122 3.59006C4.66122 4.36039 5.33712 4.98487 6.17087 4.98487Z" fill="white"/>
<path d="M11.901 4.98487C12.7348 4.98487 13.4107 4.36039 13.4107 3.59006C13.4107 2.81972 12.7348 2.19524 11.901 2.19524C11.0673 2.19524 10.3914 2.81972 10.3914 3.59006C10.3914 4.36039 11.0673 4.98487 11.901 4.98487Z" fill="white"/>
<path d="M17.6314 4.98487C18.4652 4.98487 19.1411 4.36039 19.1411 3.59006C19.1411 2.81972 18.4652 2.19524 17.6314 2.19524C16.7977 2.19524 16.1218 2.81972 16.1218 3.59006C16.1218 4.36039 16.7977 4.98487 17.6314 4.98487Z" fill="white"/>
<path d="M185.283 2.63H178.684C178.555 2.62898 178.432 2.58095 178.341 2.49637C178.251 2.41179 178.2 2.29751 178.2 2.17841C178.2 2.0593 178.251 1.94502 178.341 1.86044C178.432 1.77586 178.555 1.72783 178.684 1.72681H185.283C185.347 1.7263 185.411 1.7376 185.471 1.76007C185.531 1.78253 185.585 1.81572 185.631 1.8577C185.677 1.89969 185.713 1.94964 185.738 2.00469C185.763 2.05973 185.776 2.11877 185.776 2.17841C185.776 2.23804 185.763 2.29708 185.738 2.35212C185.713 2.40717 185.677 2.45712 185.631 2.49911C185.585 2.54109 185.531 2.57428 185.471 2.59674C185.411 2.61921 185.347 2.63051 185.283 2.63V2.63Z" fill="white"/>
<path d="M185.283 4.32351H178.684C178.555 4.32351 178.43 4.27593 178.339 4.19124C178.247 4.10655 178.195 3.99169 178.195 3.87191C178.195 3.75214 178.247 3.63728 178.339 3.55259C178.43 3.4679 178.555 3.42032 178.684 3.42032H185.283C185.347 3.41981 185.411 3.43111 185.471 3.45358C185.531 3.47604 185.585 3.50923 185.631 3.55121C185.677 3.5932 185.713 3.64315 185.738 3.6982C185.763 3.75324 185.776 3.81228 185.776 3.87191C185.776 3.93155 185.763 3.99059 185.738 4.04563C185.713 4.10068 185.677 4.15063 185.631 4.19262C185.585 4.23461 185.531 4.26779 185.471 4.29025C185.411 4.31272 185.347 4.32402 185.283 4.32351V4.32351Z" fill="white"/>
<path d="M185.283 6.017H178.684C178.555 6.01603 178.432 5.96802 178.341 5.88344C178.25 5.79885 178.199 5.68454 178.199 5.5654C178.199 5.44626 178.25 5.33195 178.341 5.24736C178.432 5.16277 178.555 5.11477 178.684 5.1138H185.283C185.412 5.11477 185.535 5.16277 185.626 5.24736C185.717 5.33195 185.768 5.44626 185.768 5.5654C185.768 5.68454 185.717 5.79885 185.626 5.88344C185.535 5.96802 185.412 6.01603 185.283 6.017V6.017Z" fill="white"/>
<path d="M237.4 155.407C237.096 155.101 236.868 154.738 236.733 154.343C236.598 153.947 236.558 153.53 236.616 153.118C236.675 152.707 236.83 152.313 237.071 151.963C237.312 151.614 237.633 151.317 238.012 151.094L235.496 141.287L240.821 143.084L242.393 152.122C242.756 152.735 242.863 153.449 242.694 154.129C242.524 154.809 242.091 155.409 241.475 155.814C240.86 156.218 240.105 156.401 239.354 156.326C238.603 156.251 237.907 155.924 237.4 155.407V155.407Z" fill="#9E616A"/>
<path d="M224.595 114.309L226.732 119.386C226.732 119.386 225.816 124.462 227.343 125.591C228.869 126.719 228.259 126.719 228.259 127.565C228.311 128.172 228.501 128.762 228.817 129.296C229.133 129.831 229.566 130.298 230.09 130.668C231.311 131.514 236.806 148.719 236.806 148.719H242.301C242.123 147.408 242.123 146.081 242.301 144.77C242.606 142.796 241.385 137.719 240.775 136.873C240.164 136.027 240.775 134.898 240.775 133.206C240.775 131.514 239.554 130.668 239.554 127.847C239.554 125.027 235.89 103.027 236.196 100.488C236.501 97.9497 233.143 95.6932 233.143 95.6932H230.09L224.595 114.309Z" fill="#E4E4E4"/>
<path d="M238.648 221.576H234.587L232.655 207.103L238.649 207.104L238.648 221.576Z" fill="#9E616A"/>
<path d="M239.684 225.213L226.589 225.213V225.06C226.589 223.811 227.126 222.613 228.082 221.73C229.038 220.847 230.334 220.351 231.686 220.351H231.686L234.078 218.674L238.541 220.351L239.684 220.351L239.684 225.213Z" fill="#2F2E41"/>
<path d="M201.497 221.469L197.684 220.18L201.25 205.975L206.879 207.877L201.497 221.469Z" fill="#9E616A"/>
<path d="M201.118 225.213L188.82 221.056L188.877 220.913C189.341 219.74 190.291 218.786 191.517 218.26C192.743 217.734 194.145 217.679 195.415 218.108L195.415 218.108L198.285 217.293L201.852 220.284L202.926 220.647L201.118 225.213Z" fill="#2F2E41"/>
<path d="M229.701 153.9C229.701 153.9 226.953 166.31 231.532 165.182C236.111 164.054 234.28 153.336 234.28 153.336L229.701 153.9Z" fill="#A0616A"/>
<path d="M209.553 143.605C209.553 143.605 205.89 148.118 205.89 150.657C205.89 153.195 204.669 175.759 204.669 175.759C204.669 175.759 195.4 209.36 197.232 211.052C199.063 212.744 205.474 214.437 206.39 213.59C207.305 212.744 215.353 178.015 215.353 178.015L222.985 159.118L230.006 186.195L230.617 214.964C230.617 214.964 238.248 216.656 239.775 215.528C241.301 214.4 241.606 187.041 239.775 177.451C237.943 167.862 240.08 145.862 240.08 145.862L209.553 143.605Z" fill="#2F2E41"/>
<path d="M221.795 83.3875C226.853 83.3875 230.953 79.5991 230.953 74.9259C230.953 70.2528 226.853 66.4644 221.795 66.4644C216.737 66.4644 212.637 70.2528 212.637 74.9259C212.637 79.5991 216.737 83.3875 221.795 83.3875Z" fill="#9E616A"/>
<path d="M210.164 95.6566C210.164 95.6566 212.8 92.0266 217.99 87.2317C220.737 86.3856 225.498 86.8787 227.148 87.2317C234.78 96.5394 235.26 95.9209 237.247 101.121C237.762 102.47 238.019 103.766 237.79 104.823C236.875 109.054 239.775 143.323 240.08 144.451C240.385 145.58 242.522 146.99 240.385 146.99C238.248 146.99 205.89 145.862 206.5 145.016C207.111 144.169 210.164 95.6566 210.164 95.6566Z" fill="#E4E4E4"/>
<path opacity="0.1" d="M208.766 144.643L217.948 125.977L213.357 145.829L208.766 144.643Z" fill="black"/>
<path d="M219.025 82.7649C219.882 82.1754 220.672 81.5059 221.381 80.7671C222.093 80.0216 222.538 79.0914 222.657 78.1033C222.709 77.6107 222.625 77.1139 222.414 76.6592C222.202 76.2045 221.869 75.8066 221.446 75.5027C220.574 74.9334 219.244 74.9665 218.52 75.6919C218.87 74.6472 219.189 73.415 218.481 72.5389C217.836 71.7417 216.633 71.6062 215.594 71.3433C213.591 70.8279 211.867 69.6413 210.759 68.015L212.523 68.3524L212.326 67.1903L213.788 67.66L213.801 66.0414L215.31 66.8215C217.157 65.2567 219.592 64.4186 222.097 64.4851C223.361 64.5045 224.599 64.8185 225.696 65.3979C226.795 65.9855 227.628 66.9204 228.041 68.0304C228.817 67.2855 230.202 67.3431 231.127 67.9253C232.053 68.5074 232.596 69.4813 232.969 70.4565C233.709 72.3265 233.881 74.3476 233.467 76.3013C233.041 78.2597 231.899 80.0231 230.232 81.2954C228.702 82.3748 226.879 83.0446 224.965 83.2315C223.058 83.4142 221.132 83.3381 219.249 83.0057" fill="#2F2E41"/>
<path d="M205.907 155.37C206.21 155.065 206.438 154.702 206.573 154.306C206.709 153.911 206.749 153.493 206.69 153.082C206.632 152.671 206.477 152.276 206.236 151.927C205.994 151.577 205.673 151.28 205.295 151.058L207.81 141.25L202.486 143.048L200.913 152.085C200.55 152.698 200.444 153.412 200.613 154.092C200.782 154.773 201.215 155.372 201.831 155.777C202.446 156.182 203.201 156.364 203.953 156.289C204.704 156.214 205.399 155.887 205.907 155.37V155.37Z" fill="#9E616A"/>
<path d="M213.216 95.6567H210.163C210.163 95.6567 206.806 97.9131 207.111 100.452C207.416 102.99 203.753 124.99 203.753 127.81C203.753 130.631 202.532 131.477 202.532 133.169C202.532 134.862 203.142 135.99 202.532 136.836C201.921 137.682 200.7 142.759 201.005 144.733C201.183 146.045 201.183 147.371 201.005 148.682H206.5C206.5 148.682 211.995 131.477 213.216 130.631C213.74 130.262 214.174 129.794 214.489 129.26C214.805 128.725 214.995 128.135 215.048 127.528C215.048 126.682 214.437 126.682 215.964 125.554C217.49 124.426 216.574 119.349 216.574 119.349L218.711 114.272L213.216 95.6567Z" fill="#E4E4E4"/>
</svg>
